<svg xmlns="http://www.w3.org/2000/svg" xmlns:xlink="http://www.w3.org/1999/xlink" width="1418" height="732" viewbox="0 0 1418 732"><path transform="translate(752.06038996639 104) translate(-648.06038996639 0) rotate(0)" d="M 109 0 L 470.69823934864166 0" fill="none" stroke="#000000" stroke-width="5"></path><polygon transform="translate(752.06038996639 104) translate(-648.06038996639 0) rotate(0) translate(495.56038996638995 0) rotate(0)" points="-24.8621506177483,0 -27.62461179749811,9.20820393249937 0,0 -27.62461179749811,-9.20820393249937" fill="undefined" stroke="none" stroke-width="5"></polygon><rect transform="translate(752.06038996639 104) translate(-358.2112702920691 0) rotate(0) translate(0 -25) translate(-113.90625 0)" x="0" y="0" width="227.8125" height="50" rx="5" ry="5" fill="#ffffff" stroke="none"></rect><text xml:space="preserve" transform="translate(752.06038996639 104) translate(-358.2112702920691 0) rotate(0) translate(0 -25) translate(-113.90625 0)" x="5" y="35.5" font-family="sans-serif" font-size="40" font-weight="normal" text-anchor="left" fill="#000000">isMemberOf</text><path transform="translate(752.06038996639 104) translate(-43.5 0) rotate(0)" d="M 109 0 L 470.69823934864166 0" fill="none" stroke="#000000" stroke-width="5"></path><polygon transform="translate(752.06038996639 104) translate(-43.5 0) rotate(0) translate(495.56038996638995 0) rotate(0)" points="-24.8621506177483,0 -27.62461179749811,9.20820393249937 0,0 -27.62461179749811,-9.20820393249937" fill="undefined" stroke="none" stroke-width="5"></polygon><rect transform="translate(752.06038996639 104) translate(246.34911967432083 0) rotate(0) translate(0 -25) translate(-113.90625 0)" x="0" y="0" width="227.8125" height="50" rx="5" ry="5" fill="#ffffff" stroke="none"></rect><text xml:space="preserve" transform="translate(752.06038996639 104) translate(246.34911967432083 0) rotate(0) translate(0 -25) translate(-113.90625 0)" x="5" y="35.5" font-family="sans-serif" font-size="40" font-weight="normal" text-anchor="left" fill="#000000">isMemberOf</text><path transform="translate(752.06038996639 104) translate(-43.5 0) rotate(59.99999999999999)" d="M 109 0 L 470.69823934864166 0" fill="none" stroke="#000000" stroke-width="5"></path><polygon transform="translate(752.06038996639 104) translate(-43.5 0) rotate(59.99999999999999) translate(495.56038996638995 0) rotate(0)" points="-24.8621506177483,0 -27.62461179749811,9.20820393249937 0,0 -27.62461179749811,-9.20820393249937" fill="undefined" stroke="none" stroke-width="5"></polygon><rect transform="translate(752.06038996639 104) translate(101.42455983716044 251.01670090251775) rotate(59.99999999999999) translate(0 -25) translate(-108.37890625 0)" x="0" y="0" width="216.7578125" height="50" rx="5" ry="5" fill="#ffffff" stroke="none"></rect><text xml:space="preserve" transform="translate(752.06038996639 104) translate(101.42455983716044 251.01670090251775) rotate(59.99999999999999) translate(0 -25) translate(-108.37890625 0)" x="5" y="35.5" font-family="sans-serif" font-size="40" font-weight="normal" text-anchor="left" fill="#000000">accessRole</text><path transform="translate(752.06038996639 104) translate(561.06038996639 0) rotate(120.00000000000001)" d="M 109 0 L 470.69823934864166 0" fill="none" stroke="#000000" stroke-width="5"></path><polygon transform="translate(752.06038996639 104) translate(561.06038996639 0) rotate(120.00000000000001) translate(495.56038996638995 0) rotate(0)" points="-24.8621506177483,0 -27.62461179749811,9.20820393249937 0,0 -27.62461179749811,-9.20820393249937" fill="undefined" stroke="none" stroke-width="5"></polygon><rect transform="translate(752.06038996639 104) translate(416.1358301292295 251.01670090251775) rotate(300.00000000000006) translate(0 -25) translate(-108.37890625 0)" x="0" y="0" width="216.7578125" height="50" rx="5" ry="5" fill="#ffffff" stroke="none"></rect><text xml:space="preserve" transform="translate(752.06038996639 104) translate(416.1358301292295 251.01670090251775) rotate(300.00000000000006) translate(0 -25) translate(-108.37890625 0)" x="5" y="35.5" font-family="sans-serif" font-size="40" font-weight="normal" text-anchor="left" fill="#000000">accessRole</text><circle transform="translate(752.06038996639 104)" cx="-648.06038996639" cy="0" r="102" fill="#ffffff" stroke="#000000" strokewidth="4"></circle><text xml:space="preserve" transform="translate(752.06038996639 104) translate(-648.06038996639 0) translate(0 0)" x="0" y="13" font-family="sans-serif" font-size="50" font-weight="normal" text-anchor="middle" fill="#000000">user</text><circle transform="translate(752.06038996639 104)" cx="-43.5" cy="0" r="102" fill="#ffffff" stroke="#000000" strokewidth="4"></circle><text xml:space="preserve" transform="translate(752.06038996639 104) translate(-43.5 0) translate(0 0)" x="0" y="13" font-family="sans-serif" font-size="50" font-weight="normal" text-anchor="middle" fill="#000000">group</text><circle transform="translate(752.06038996639 104)" cx="561.06038996639" cy="0" r="102" fill="#ffffff" stroke="#000000" strokewidth="4"></circle><text xml:space="preserve" transform="translate(752.06038996639 104) translate(561.06038996639 0) translate(0 0)" x="0" y="13" font-family="sans-serif" font-size="50" font-weight="normal" text-anchor="middle" fill="#000000">permission</text><text xml:space="preserve" transform="translate(752.06038996639 104) translate(561.06038996639 0) translate(0 0)" x="0" y="73" font-family="sans-serif" font-size="50" font-weight="normal" text-anchor="middle" fill="#000000">Set</text><circle transform="translate(752.06038996639 104)" cx="258.780194983195" cy="523.5646558327205" r="102" fill="#ffffff" stroke="#000000" strokewidth="4"></circle><text xml:space="preserve" transform="translate(752.06038996639 104) translate(258.780194983195 523.5646558327205) translate(0 0)" x="0" y="13" font-family="sans-serif" font-size="50" font-weight="normal" text-anchor="middle" fill="#000000">node</text></svg>