<?xml version="1.0" ?><svg height="64px" id="SVGRoot" version="1.1" viewBox="0 0 64 64" width="64px" xmlns="http://www.w3.org/2000/svg" xmlns:cc="http://creativecommons.org/ns#" xmlns:dc="http://purl.org/dc/elements/1.1/" xmlns:inkscape="http://www.inkscape.org/namespaces/inkscape" xmlns:rdf="http://www.w3.org/1999/02/22-rdf-syntax-ns#" xmlns:sodipodi="http://sodipodi.sourceforge.net/DTD/sodipodi-0.dtd" xmlns:svg="http://www.w3.org/2000/svg"><defs id="defs3848"/><g id="layer1"><g id="g4852" style="clip-rule:evenodd;fill-rule:evenodd;image-rendering:optimizeQuality;shape-rendering:geometricPrecision;text-rendering:geometricPrecision;stroke:#000000" transform="matrix(0.09599676,0,0,0.09599676,-633.63357,-897.57539)"><path class="fil0 str0" d="m 6785,9780 c -43,-9 -81,-35 -101,-79 -42,-94 6,-179 103,-197 16,-48 58,-86 111,-95 78,-13 151,39 165,116 49,-8 88,32 96,80 8,49 -25,95 -73,103" id="path245" style="fill:none;stroke:#000000;stroke-width:20.83460045;stroke-linecap:round;stroke-linejoin:round"/><line class="fil0 str0" id="line247" style="fill:none;stroke:#000000;stroke-width:20.83460045;stroke-linecap:round;stroke-linejoin:round" x1="6921" x2="6921" y1="9664" y2="9911"/><polyline class="fil0 str0" id="polyline249" points="7009,9664 7009,9857 7130,9857 " style="fill:none;stroke:#000000;stroke-width:20.83460045;stroke-linecap:round;stroke-linejoin:round"/><polyline class="fil0 str0" id="polyline251" points="6838,9664 6838,9858 6716,9858 " style="fill:none;stroke:#000000;stroke-width:20.83460045;stroke-linecap:round;stroke-linejoin:round"/><circle class="fil0 str1" cx="6921" cy="9939" id="circle253" r="26" style="fill:none;stroke:#000000;stroke-width:20.83460045"/><circle class="fil0 str1" cx="7158" cy="9857" id="circle255" r="26" style="fill:none;stroke:#000000;stroke-width:20.83460045"/><circle class="fil0 str1" cx="6689" cy="9858" id="circle257" r="26" style="fill:none;stroke:#000000;stroke-width:20.83460045"/><path class="fil0 str0" d="m 6836,9508 c 21,-48 77,-69 124,-48" id="path259" style="fill:none;stroke:#000000;stroke-width:20.83460045;stroke-linecap:round;stroke-linejoin:round"/><line class="fil0 str0" id="line261" style="fill:none;stroke:#000000;stroke-width:20.83460045;stroke-linecap:round;stroke-linejoin:round" x1="6800" x2="7046" y1="9607" y2="9607"/></g></g></svg>