<?xml version="1.0" ?><!DOCTYPE svg  PUBLIC '-//W3C//DTD SVG 1.1//EN'  'http://www.w3.org/Graphics/SVG/1.1/DTD/svg11.dtd'><svg height="48px" id="Layer_1" style="enable-background:new 0 0 48 48;" version="1.1" viewBox="0 0 48 48" width="48px" xml:space="preserve" xmlns="http://www.w3.org/2000/svg" xmlns:xlink="http://www.w3.org/1999/xlink"><g><path d="M45.945,32.385c0,0.549-0.45,1-1,1h-42.5c-0.55,0-1-0.451-1-1   V26.51c0-0.551,0.45-1,1-1h42.5c0.55,0,1,0.449,1,1V32.385z" style="fill:none;stroke:#231F20;stroke-miterlimit:10;"/></g><line style="fill:none;stroke:#231F20;stroke-miterlimit:10;" x1="4.102" x2="4.102" y1="25.885" y2="27.635"/><line style="fill:none;stroke:#231F20;stroke-miterlimit:10;" x1="13.695" x2="13.695" y1="25.854" y2="29.197"/><line style="fill:none;stroke:#231F20;stroke-miterlimit:10;" x1="7.977" x2="7.977" y1="25.791" y2="29.166"/><line style="fill:none;stroke:#231F20;stroke-miterlimit:10;" x1="6.008" x2="6.008" y1="25.885" y2="27.635"/><line style="fill:none;stroke:#231F20;stroke-miterlimit:10;" x1="9.883" x2="9.883" y1="25.947" y2="27.697"/><line style="fill:none;stroke:#231F20;stroke-miterlimit:10;" x1="11.82" x2="11.82" y1="25.947" y2="27.697"/><line style="fill:none;stroke:#231F20;stroke-miterlimit:10;" x1="15.57" x2="15.57" y1="25.947" y2="27.697"/><line style="fill:none;stroke:#231F20;stroke-miterlimit:10;" x1="17.383" x2="17.383" y1="25.947" y2="27.697"/><line style="fill:none;stroke:#231F20;stroke-miterlimit:10;" x1="19.195" x2="19.195" y1="25.791" y2="29.135"/><line style="fill:none;stroke:#231F20;stroke-miterlimit:10;" x1="21.195" x2="21.195" y1="25.905" y2="27.655"/><line style="fill:none;stroke:#231F20;stroke-miterlimit:10;" x1="23.133" x2="23.133" y1="25.885" y2="27.635"/><line style="fill:none;stroke:#231F20;stroke-miterlimit:10;" x1="25.111" x2="25.111" y1="25.821" y2="29.113"/><line style="fill:none;stroke:#231F20;stroke-miterlimit:10;" x1="27.008" x2="27.008" y1="25.874" y2="27.624"/><line style="fill:none;stroke:#231F20;stroke-miterlimit:10;" x1="28.945" x2="28.945" y1="25.874" y2="27.624"/><line style="fill:none;stroke:#231F20;stroke-miterlimit:10;" x1="30.883" x2="30.883" y1="25.89" y2="29.15"/><line style="fill:none;stroke:#231F20;stroke-miterlimit:10;" x1="32.8" x2="32.8" y1="25.937" y2="27.687"/><line style="fill:none;stroke:#231F20;stroke-miterlimit:10;" x1="34.695" x2="34.695" y1="25.916" y2="27.666"/><line style="fill:none;stroke:#231F20;stroke-miterlimit:10;" x1="38.862" x2="38.862" y1="25.999" y2="27.749"/><line style="fill:none;stroke:#231F20;stroke-miterlimit:10;" x1="40.758" x2="40.758" y1="25.979" y2="27.729"/><line style="fill:none;stroke:#231F20;stroke-miterlimit:10;" x1="36.758" x2="36.758" y1="25.89" y2="29.15"/><line style="fill:none;stroke:#231F20;stroke-miterlimit:10;" x1="42.82" x2="42.82" y1="25.89" y2="29.15"/><polyline points="11.406,14.035 5.047,17.401 11.406,21.09 " style="fill:none;stroke:#231F20;stroke-miterlimit:10;"/><path d="M10.354,19.16" style="fill:none;stroke:#231F20;stroke-miterlimit:10;"/><polyline points="10.25,14.768 11.539,16.057 10.487,17.109 " style="fill:none;stroke:#231F20;stroke-miterlimit:10;"/><polyline points="10.504,17.876 11.538,18.91 10.293,20.154 " style="fill:none;stroke:#231F20;stroke-miterlimit:10;"/><rect height="1.018" style="fill:#231F20;" transform="matrix(-0.7173 0.6968 -0.6968 -0.7173 29.5717 22.9199)" width="1.046" x="9.613" y="16.95"/><rect height="1.018" style="fill:#231F20;" transform="matrix(-0.7173 0.6968 -0.6968 -0.7173 29.5717 22.9199)" width="1.046" x="9.613" y="16.95"/><rect height="1.018" style="fill:#231F20;" transform="matrix(-0.739 0.6737 -0.6737 -0.739 30.4388 24.0645)" width="1.002" x="10.057" y="17.419"/><path d="M36.31,21.016h-2.75v-6.947h2.75c2.17,0,3.92,1.557,3.92,3.469  c0,0.961-0.44,1.833-1.15,2.457C38.369,20.63,37.39,21.016,36.31,21.016z" style="fill:none;stroke:#231F20;stroke-miterlimit:10;"/><line style="fill:none;stroke:#231F20;stroke-miterlimit:10;" x1="31.562" x2="31.562" y1="14.159" y2="20.576"/><line style="fill:none;stroke:#231F20;stroke-miterlimit:10;" x1="29.646" x2="29.646" y1="14.242" y2="20.659"/><line style="fill:none;stroke:#231F20;stroke-miterlimit:10;" x1="7.953" x2="7.953" y1="15.94" y2="18.924"/><line style="fill:none;stroke:#231F20;stroke-miterlimit:10;" x1="11.172" x2="34.229" y1="14.082" y2="14.082"/><line style="fill:none;stroke:#231F20;stroke-miterlimit:10;" x1="11.125" x2="33.146" y1="21.028" y2="21.028"/></svg>