<?xml version="1.0" encoding="UTF-8" standalone="no"?>
<!-- Created with Inkscape (http://www.inkscape.org/) -->

<svg
   xmlns:dc="http://purl.org/dc/elements/1.1/"
   xmlns:cc="http://creativecommons.org/ns#"
   xmlns:rdf="http://www.w3.org/1999/02/22-rdf-syntax-ns#"
   xmlns:svg="http://www.w3.org/2000/svg"
   xmlns="http://www.w3.org/2000/svg"
   xmlns:sodipodi="http://sodipodi.sourceforge.net/DTD/sodipodi-0.dtd"
   xmlns:inkscape="http://www.inkscape.org/namespaces/inkscape"
   width="805.54517"
   height="265.76367"
   viewBox="0 0 213.13382 70.31664"
   version="1.1"
   id="svg384"
   inkscape:version="0.92.3 (2405546, 2018-03-11)"
   sodipodi:docname="GanisterHorizontal.svg">
  <defs
     id="defs378">
    <clipPath
       clipPathUnits="userSpaceOnUse"
       id="clipPath112">
      <path
         d="M 0,1560 H 1170 V 0 H 0 Z"
         id="path110"
         inkscape:connector-curvature="0" />
    </clipPath>
  </defs>
  <sodipodi:namedview
     id="base"
     pagecolor="#ffffff"
     bordercolor="#666666"
     borderopacity="1.0"
     inkscape:pageopacity="0.0"
     inkscape:pageshadow="2"
     inkscape:zoom="1.4"
     inkscape:cx="470.30758"
     inkscape:cy="243.95789"
     inkscape:document-units="mm"
     inkscape:current-layer="layer1"
     showgrid="false"
     units="px"
     fit-margin-top="2"
     fit-margin-bottom="2"
     fit-margin-left="5"
     fit-margin-right="5"
     inkscape:window-width="1920"
     inkscape:window-height="1017"
     inkscape:window-x="-8"
     inkscape:window-y="-8"
     inkscape:window-maximized="1" />
  <metadata
     id="metadata381">
    <rdf:RDF>
      <cc:Work
         rdf:about="">
        <dc:format>image/svg+xml</dc:format>
        <dc:type
           rdf:resource="http://purl.org/dc/dcmitype/StillImage" />
        <dc:title></dc:title>
      </cc:Work>
    </rdf:RDF>
  </metadata>
  <g
     inkscape:label="Calque 1"
     inkscape:groupmode="layer"
     id="layer1"
     transform="translate(66.501435,-20.692867)">
    <g
       transform="matrix(0.35277777,0,0,-0.35277777,-152.79596,468.60118)"
       id="g106">
      <g
         id="g108"
         clip-path="url(#clipPath112)">
        <g
           id="g114"
           transform="translate(266.1519,1227.9897)">
          <path
             d="m 0,0 c 9.823,0 17.786,-7.966 17.788,-17.789 v -10.297 l 51.835,29.929 -8.94,5.162 c -8.508,4.909 -11.424,15.789 -6.51,24.296 1.439,2.492 3.395,4.485 5.646,5.959 L -8.246,-2.034 C -5.778,-0.74 -2.977,0 0,0"
             style="fill:#33bcad;fill-opacity:1;fill-rule:nonzero;stroke:none"
             id="path116"
             inkscape:connector-curvature="0" />
        </g>
        <g
           id="g118"
           transform="translate(275.0013,1145.2141)">
          <path
             d="M 0,0 8.936,-5.164 8.939,54.69 0.023,49.545 c -8.51,-4.913 -19.389,-1.998 -24.3,6.511 -1.487,2.584 -2.248,5.383 -2.359,8.167 v -78.602 c 0.15,2.685 0.899,5.376 2.336,7.869 C -19.388,1.996 -8.507,4.909 0,0"
             style="fill:#bfd72f;fill-opacity:1;fill-rule:nonzero;stroke:none"
             id="path120"
             inkscape:connector-curvature="0" />
        </g>
        <g
           id="g122"
           transform="translate(250.7245,1201.2703)">
          <path
             d="m 0,0 c 4.911,-8.509 15.79,-11.424 24.3,-6.511 l 8.916,5.145 V 8.93 c -0.003,9.824 -7.965,17.789 -17.789,17.789 -2.977,0 -5.778,-0.739 -8.245,-2.034 L 6.512,24.299 C 5.983,23.992 5.476,23.664 4.989,23.316 4.983,23.309 4.976,23.304 4.968,23.301 4.524,22.979 4.101,22.634 3.695,22.28 3.6,22.2 3.512,22.114 3.423,22.031 3.105,21.743 2.802,21.445 2.511,21.136 2.372,20.992 2.236,20.843 2.107,20.692 1.87,20.428 1.645,20.154 1.428,19.878 1.273,19.682 1.124,19.489 0.987,19.286 0.801,19.032 0.623,18.775 0.454,18.513 0.31,18.282 0.165,18.044 0.032,17.812 c -0.148,-0.254 -0.285,-0.507 -0.42,-0.761 -0.131,-0.263 -0.261,-0.529 -0.385,-0.802 -0.11,-0.24 -0.215,-0.482 -0.313,-0.723 -0.122,-0.309 -0.235,-0.628 -0.345,-0.95 -0.07,-0.203 -0.136,-0.407 -0.198,-0.617 -0.112,-0.393 -0.219,-0.79 -0.305,-1.196 -0.031,-0.131 -0.061,-0.267 -0.091,-0.4 -0.099,-0.515 -0.183,-1.037 -0.24,-1.566 C -2.267,10.773 -2.267,10.75 -2.271,10.728 -2.332,10.137 -2.362,9.536 -2.36,8.932 V 8.167 C -2.248,5.383 -1.487,2.584 0,0"
             style="fill:#00ab4e;fill-opacity:1;fill-rule:nonzero;stroke:none"
             id="path124"
             inkscape:connector-curvature="0" />
        </g>
        <g
           id="g126"
           transform="translate(351.1761,1259.2664)">
          <path
             d="m 0,0 c 4.912,-8.509 1.998,-19.387 -6.514,-24.302 l -8.887,-5.132 60.703,-35.047 c 8.506,-4.912 19.383,-1.995 24.298,6.511 4.909,8.511 1.994,19.384 -6.514,24.302 L -6.551,6.537 C -6.731,6.638 -6.915,6.721 -7.097,6.815 -4.233,5.304 -1.741,3.01 0,0"
             style="fill:#00c0f3;fill-opacity:1;fill-rule:nonzero;stroke:none"
             id="path128"
             inkscape:connector-curvature="0" />
        </g>
        <g
           id="g130"
           transform="translate(326.8351,1234.9949)">
          <path
             d="m 0,0 8.94,-5.162 8.887,5.131 c 8.512,4.916 11.426,15.794 6.514,24.302 -1.741,3.011 -4.233,5.305 -7.097,6.816 -0.242,0.127 -0.484,0.253 -0.725,0.374 -0.365,0.168 -0.733,0.325 -1.111,0.469 -0.125,0.049 -0.25,0.106 -0.377,0.15 -0.472,0.173 -0.953,0.327 -1.438,0.462 -0.031,0.007 -0.063,0.014 -0.089,0.024 C 9.117,33.733 4.283,33.231 0.042,30.779 L -0.864,30.255 C -3.115,28.781 -5.071,26.788 -6.51,24.296 -11.424,15.789 -8.508,4.909 0,0"
             style="fill:#0080c6;fill-opacity:1;fill-rule:nonzero;stroke:none"
             id="path132"
             inkscape:connector-curvature="0" />
        </g>
        <g
           id="g134"
           transform="translate(413.9711,1145.374)">
          <path
             d="m 0,0 -69.38,40.056 c -8.508,4.911 -19.385,1.995 -24.296,-6.51 -4.915,-8.511 -2,-19.387 6.508,-24.3 l 42.947,-24.797 26.7,15.416 C -11.911,3.107 -5.284,2.923 0,0"
             style="fill:#5c2d91;fill-opacity:1;fill-rule:nonzero;stroke:none"
             id="path136"
             inkscape:connector-curvature="0" />
        </g>
        <g
           id="g138"
           transform="translate(320.2991,1080.7328)">
          <path
             d="m 0,0 c -4.907,8.509 -1.997,19.394 6.515,24.303 l 8.888,5.133 -51.764,29.882 V 49.056 c 0,-9.824 -7.96,-17.789 -17.788,-17.789 -3.479,0 -6.707,1.011 -9.451,2.739 0.174,-0.115 0.337,-0.233 0.516,-0.337 L 6.553,-6.536 C 6.735,-6.641 6.919,-6.718 7.103,-6.814 4.237,-5.306 1.741,-3.008 0,0"
             style="fill:#faa619;fill-opacity:1;fill-rule:nonzero;stroke:none"
             id="path140"
             inkscape:connector-curvature="0" />
        </g>
        <g
           id="g142"
           transform="translate(266.1506,1111.9994)">
          <path
             d="m 0,0 c 9.827,0 17.787,7.966 17.787,17.789 v 10.262 l -8.936,5.164 c -8.508,4.908 -19.388,1.996 -24.301,-6.511 -1.437,-2.492 -2.185,-5.183 -2.336,-7.868 v -1.047 c -0.002,-4.902 1.98,-9.337 5.184,-12.554 0.023,-0.018 0.046,-0.042 0.067,-0.063 0.357,-0.352 0.732,-0.692 1.117,-1.019 0.104,-0.084 0.21,-0.169 0.317,-0.252 0.315,-0.253 0.636,-0.491 0.965,-0.721 C -9.912,3.026 -9.681,2.879 -9.452,2.739 -6.708,1.011 -3.48,0 0,0"
             style="fill:#bc9632;fill-opacity:1;fill-rule:nonzero;stroke:none"
             id="path144"
             inkscape:connector-curvature="0" />
        </g>
        <g
           id="g146"
           transform="translate(396.4404,1114.4154)">
          <path
             d="M 0,0 -26.691,15.407 -60.739,-4.247 -51.8,-9.408 c 8.505,-4.91 11.427,-15.791 6.512,-24.301 -1.434,-2.48 -3.377,-4.47 -5.62,-5.942 L 17.804,0.016 c 0.015,0.009 0.031,0.019 0.049,0.028 C 12.52,-3.057 5.727,-3.305 0,0"
             style="fill:#d8098c;fill-opacity:1;fill-rule:nonzero;stroke:none"
             id="path148"
             inkscape:connector-curvature="0" />
        </g>
        <g
           id="g150"
           transform="translate(415.8073,1115.4482)">
          <path
             d="M 0,0 C 0.402,0.293 0.78,0.603 1.152,0.923 1.235,0.995 1.326,1.064 1.414,1.141 1.71,1.405 1.988,1.695 2.27,1.982 2.412,2.125 2.558,2.265 2.698,2.417 2.899,2.643 3.086,2.88 3.282,3.114 c 0.187,0.232 0.382,0.461 0.56,0.705 0.138,0.186 0.26,0.385 0.392,0.578 0.209,0.302 0.412,0.606 0.603,0.927 0.11,0.19 0.211,0.378 0.315,0.569 0.175,0.329 0.349,0.659 0.505,0.992 0.101,0.223 0.196,0.446 0.288,0.671 0.129,0.313 0.253,0.62 0.361,0.928 0.088,0.252 0.168,0.503 0.246,0.759 0.084,0.298 0.173,0.6 0.251,0.903 0.059,0.251 0.112,0.507 0.165,0.76 0.062,0.32 0.123,0.644 0.166,0.967 0.033,0.224 0.058,0.448 0.081,0.669 0.039,0.373 0.069,0.746 0.084,1.118 0.007,0.166 0.009,0.337 0.009,0.508 0.01,0.433 -0.002,0.862 -0.026,1.294 -0.005,0.109 -0.018,0.214 -0.026,0.324 -0.038,0.48 -0.093,0.961 -0.169,1.439 -0.012,0.065 -0.024,0.123 -0.03,0.188 -0.095,0.508 -0.202,1.013 -0.336,1.507 -0.01,0.045 -0.02,0.085 -0.033,0.13 -0.138,0.508 -0.297,1.004 -0.477,1.494 -0.017,0.052 -0.039,0.101 -0.06,0.153 -0.179,0.477 -0.386,0.95 -0.604,1.412 -0.035,0.069 -0.073,0.141 -0.108,0.214 -0.226,0.442 -0.461,0.879 -0.722,1.311 -0.033,0.059 -0.071,0.107 -0.104,0.159 -1.494,2.398 -3.573,4.473 -6.19,5.983 l -0.259,0.15 c -5.284,2.922 -11.911,3.106 -17.521,-0.135 l -26.7,-15.417 26.69,-15.407 c 5.727,-3.305 12.52,-3.056 17.853,0.044 0.473,0.279 0.92,0.573 1.358,0.885 C -0.105,-0.068 -0.05,-0.038 0,0"
             style="fill:#932784;fill-opacity:1;fill-rule:nonzero;stroke:none"
             id="path152"
             inkscape:connector-curvature="0" />
        </g>
        <g
           id="g154"
           transform="translate(344.6408,1105.0076)">
          <path
             d="m 0,0 -8.939,5.161 -8.888,-5.133 c -8.512,-4.908 -11.422,-15.794 -6.515,-24.303 1.741,-3.008 4.237,-5.305 7.103,-6.814 0.239,-0.129 0.478,-0.253 0.721,-0.374 0.364,-0.168 0.738,-0.328 1.112,-0.475 0.125,-0.048 0.249,-0.099 0.373,-0.144 0.478,-0.173 0.96,-0.331 1.446,-0.464 0.026,-0.008 0.057,-0.015 0.079,-0.022 4.391,-1.168 9.225,-0.665 13.467,1.786 l 0.933,0.538 c 2.242,1.473 4.186,3.463 5.62,5.943 C 11.427,-15.791 8.505,-4.91 0,0"
             style="fill:#c4151c;fill-opacity:1;fill-rule:nonzero;stroke:none"
             id="path156"
             inkscape:connector-curvature="0" />
        </g>
        <g
           id="g158"
           transform="translate(343.3047,1250.2971)">
          <path
             d="m 0,0 c 0,-4.173 -3.381,-7.554 -7.553,-7.554 -4.176,0 -7.558,3.381 -7.558,7.554 0,4.169 3.382,7.553 7.558,7.553 C -3.381,7.553 0,4.169 0,0"
             style="fill:#ffffff;fill-opacity:1;fill-rule:nonzero;stroke:none"
             id="path160"
             inkscape:connector-curvature="0" />
        </g>
        <g
           id="g162"
           transform="translate(273.7837,1210.1271)">
          <path
             d="m 0,0 c 0,-4.173 -3.38,-7.553 -7.553,-7.553 -4.171,0 -7.552,3.38 -7.552,7.553 0,4.17 3.381,7.554 7.552,7.554 C -3.38,7.554 0,4.17 0,0"
             style="fill:#ffffff;fill-opacity:1;fill-rule:nonzero;stroke:none"
             id="path164"
             inkscape:connector-curvature="0" />
        </g>
        <g
           id="g166"
           transform="translate(273.7837,1129.8643)">
          <path
             d="m 0,0 c 0,-4.174 -3.38,-7.557 -7.553,-7.557 -4.171,0 -7.552,3.383 -7.552,7.557 0,4.169 3.381,7.55 7.552,7.55 C -3.38,7.55 0,4.169 0,0"
             style="fill:#ffffff;fill-opacity:1;fill-rule:nonzero;stroke:none"
             id="path168"
             inkscape:connector-curvature="0" />
        </g>
        <g
           id="g170"
           transform="translate(343.278,1089.7034)">
          <path
             d="m 0,0 c 0,-4.173 -3.379,-7.555 -7.551,-7.555 -4.171,0 -7.555,3.382 -7.555,7.555 0,4.169 3.384,7.552 7.555,7.552 C -3.379,7.552 0,4.169 0,0"
             style="fill:#ffffff;fill-opacity:1;fill-rule:nonzero;stroke:none"
             id="path172"
             inkscape:connector-curvature="0" />
        </g>
        <g
           id="g174"
           transform="translate(412.8017,1129.7598)">
          <path
             d="m 0,0 c 0,-4.175 -3.379,-7.557 -7.551,-7.557 -4.169,0 -7.553,3.382 -7.553,7.557 0,4.169 3.384,7.547 7.553,7.547 C -3.379,7.547 0,4.169 0,0"
             style="fill:#ffffff;fill-opacity:1;fill-rule:nonzero;stroke:none"
             id="path176"
             inkscape:connector-curvature="0" />
        </g>
      </g>
    </g>
    <g
       aria-label="Ganister"
       style="font-variant:normal;font-weight:bold;font-stretch:normal;font-size:37.19473267px;font-family:'Titillium Web';-inkscape-font-specification:TitilliumWeb-Bold;writing-mode:lr-tb;fill:#58595b;fill-opacity:1;fill-rule:nonzero;stroke:none;stroke-width:0.35277775"
       id="text180">
      <path
         d="m 23.41129,53.302075 v -4.463368 h 7.364557 v 13.129741 q -5.318847,0.855479 -8.629178,0.855479 -5.913962,0 -8.145646,-3.161552 -2.194489,-3.161553 -2.194489,-10.042578 0,-6.881026 2.306073,-9.930994 2.306073,-3.049968 7.848089,-3.049968 3.45911,0 7.476141,0.78109 l 1.33901,0.260363 -0.148779,3.979836 q -4.463368,-0.483531 -7.327362,-0.483531 -2.8268,0 -3.979836,0.669505 -1.153037,0.669505 -1.710958,2.492047 -0.520726,1.785347 -0.520726,6.174325 0,4.351784 1.078647,6.099937 1.078647,1.748152 4.463368,1.748152 l 3.087163,-0.148779 v -4.909705 z"
         style="stroke-width:0.35277775"
         id="path4570" />
      <path
         d="m 49.422612,49.582602 v 7.736505 q 0.07439,0.892673 0.297558,1.26462 0.223169,0.334753 0.929869,0.483532 l -0.148779,3.756668 q -1.896932,0 -3.049968,-0.260363 -1.115842,-0.260363 -2.268879,-1.041453 -2.678021,1.301816 -5.467626,1.301816 -5.765183,0 -5.765183,-6.099936 0,-2.975579 1.599373,-4.203005 1.599374,-1.264621 4.909705,-1.487789 l 3.979836,-0.297558 v -1.153037 q 0,-1.153037 -0.520726,-1.562179 -0.520726,-0.446336 -1.673763,-0.446336 l -6.99261,0.297557 -0.148779,-3.45911 q 3.979837,-1.078647 7.550531,-1.078647 3.607889,0 5.170068,1.487789 1.599373,1.48779 1.599373,4.760926 z m -8.368814,4.909705 q -2.082905,0.185974 -2.082905,2.231684 0,2.04571 1.822541,2.04571 1.4134,0 3.087163,-0.446337 l 0.557921,-0.148779 v -3.979836 z"
         style="stroke-width:0.35277775"
         id="path4572" />
      <path
         d="M 59.194365,62.37759 H 54.210271 V 43.780224 h 4.9469 v 1.041452 q 2.529241,-1.487789 4.649341,-1.487789 3.719473,0 5.132873,2.194489 1.4134,2.19449 1.4134,6.769442 V 62.37759 h -4.984094 v -9.930993 q 0,-2.380463 -0.557921,-3.496305 -0.557921,-1.153037 -2.231684,-1.153037 -1.524984,0 -2.938384,0.520726 l -0.446337,0.148779 z"
         style="stroke-width:0.35277775"
         id="path4574" />
      <path
         d="M 74.769078,62.37759 V 43.780224 h 4.984095 V 62.37759 Z m 0,-20.977829 v -5.058484 h 4.984095 v 5.058484 z"
         style="stroke-width:0.35277775"
         id="path4576" />
      <path
         d="m 97.711255,48.429565 q -4.612147,-0.595115 -6.471883,-0.595115 -1.822542,0 -2.380463,0.334752 -0.520726,0.334753 -0.520726,1.078648 0,0.706699 0.7067,1.004257 0.743894,0.260363 3.719473,0.818284 3.012773,0.520727 4.277394,1.748153 1.264621,1.227426 1.264621,3.979836 0,6.025547 -7.476141,6.025547 -2.454853,0 -5.951158,-0.669505 l -1.190231,-0.223169 0.148779,-4.16581 q 4.612147,0.595116 6.397494,0.595116 1.822542,0 2.454852,-0.334753 0.669506,-0.371947 0.669506,-1.078647 0,-0.7067 -0.7067,-1.041452 -0.669506,-0.334753 -3.570695,-0.818284 -2.863994,-0.483532 -4.277394,-1.636569 -1.4134,-1.153036 -1.4134,-4.09142 0,-2.975579 2.008516,-4.463368 2.008515,-1.524984 5.170068,-1.524984 2.194489,0 5.988352,0.7067 l 1.227426,0.223168 z"
         style="stroke-width:0.35277775"
         id="path4578" />
      <path
         d="m 112.24161,48.020423 h -4.57495 v 7.624921 q 0,1.115842 0.0372,1.599373 0.0744,0.446337 0.40914,0.781089 0.37195,0.334753 1.11585,0.334753 l 2.8268,-0.07439 0.22316,3.979836 q -2.49204,0.557921 -3.79386,0.557921 -3.34752,0 -4.57495,-1.487789 -1.22743,-1.524984 -1.22743,-5.57921 v -7.736505 h -2.19449 v -4.240199 h 2.19449 v -5.170068 h 4.9841 v 5.170068 h 4.57495 z"
         style="stroke-width:0.35277775"
         id="path4580" />
      <path
         d="m 119.54224,55.199007 q 0.0372,1.710957 0.89267,2.492047 0.89267,0.743895 2.52924,0.743895 3.45911,0 6.17433,-0.223169 l 1.04145,-0.111584 0.0744,3.682278 q -4.2774,1.041453 -7.73651,1.041453 -4.203,0 -6.09993,-2.231684 -1.89693,-2.231684 -1.89693,-7.252973 0,-10.005383 8.22003,-10.005383 8.10845,0 8.10845,8.40601 l -0.37194,3.45911 z m 6.39749,-3.793863 q 0,-2.231684 -0.7067,-3.087163 -0.7067,-0.892673 -2.49205,-0.892673 -1.74815,0 -2.49205,0.929868 -0.70669,0.892674 -0.74389,3.049968 z"
         style="stroke-width:0.35277775"
         id="path4582" />
      <path
         d="M 134.41141,62.37759 V 43.780224 h 4.9469 v 1.971321 q 3.12436,-1.859737 5.95116,-2.417658 v 5.021289 q -3.01278,0.63231 -5.17007,1.301816 l -0.7439,0.260363 V 62.37759 Z"
         style="stroke-width:0.35277775"
         id="path4584" />
    </g>
    <g
       aria-label="Graph-based Digital Thread"
       style="font-variant:normal;font-weight:bold;font-stretch:normal;font-size:7.43810797px;font-family:'Titillium Web';-inkscape-font-specification:TitilliumWeb-SemiBold;writing-mode:lr-tb;fill:#a7a9ac;fill-opacity:1;fill-rule:nonzero;stroke:none;stroke-width:0.35277775"
       id="text184">
      <path
         d="m 24.641525,76.121686 v -0.892573 h 1.472745 v 2.625652 q -1.063649,0.171077 -1.725641,0.171077 -1.182659,0 -1.628946,-0.632239 -0.438848,-0.63224 -0.438848,-2.00829 0,-1.37605 0.461163,-1.985974 0.461162,-0.609925 1.569441,-0.609925 0.691744,0 1.495059,0.1562 l 0.267772,0.05207 -0.02975,0.795877 q -0.892573,-0.0967 -1.465308,-0.0967 -0.565296,0 -0.795877,0.133886 -0.230581,0.133886 -0.342153,0.498353 -0.104134,0.357029 -0.104134,1.234726 0,0.870259 0.215706,1.21985 0.215705,0.349591 0.892573,0.349591 l 0.617362,-0.02975 v -0.98183 z"
         style="letter-spacing:1.05833328px;stroke-width:0.35277775"
         id="path4587" />
      <path
         d="M 28.052741,77.936584 V 74.21753 h 0.989268 v 0.39422 q 0.624801,-0.371905 1.190097,-0.483477 v 1.004145 q -0.602486,0.126448 -1.033897,0.260334 l -0.148762,0.05207 v 2.491766 z"
         style="letter-spacing:1.05833328px;stroke-width:0.35277775"
         id="path4589" />
      <path
         d="m 34.720105,75.377875 v 1.547127 q 0.01488,0.178514 0.05951,0.252895 0.04463,0.06694 0.185952,0.0967 l -0.02975,0.751249 q -0.379344,0 -0.609925,-0.05207 -0.223143,-0.05207 -0.453725,-0.208267 -0.535543,0.260334 -1.093401,0.260334 -1.152907,0 -1.152907,-1.21985 0,-0.595049 0.319838,-0.840506 0.319839,-0.252896 0.981831,-0.297524 l 0.795877,-0.05951 v -0.230582 q 0,-0.230581 -0.104133,-0.3124 -0.104134,-0.08926 -0.334715,-0.08926 l -1.398364,0.0595 -0.02975,-0.691744 q 0.795878,-0.215705 1.509936,-0.215705 0.721497,0 1.033897,0.297525 0.319839,0.297524 0.319839,0.952077 z m -1.673575,0.981831 q -0.416534,0.03719 -0.416534,0.446286 0,0.409096 0.364468,0.409096 0.282648,0 0.617363,-0.08926 l 0.111571,-0.02975 v -0.795877 z"
         style="letter-spacing:1.05833328px;stroke-width:0.35277775"
         id="path4591" />
      <path
         d="M 36.735862,79.498587 V 74.21753 h 0.989268 v 0.200829 q 0.483477,-0.290086 0.847945,-0.290086 0.751248,0 1.108278,0.453725 0.357029,0.446286 0.357029,1.524812 0,1.078526 -0.39422,1.502498 -0.39422,0.416534 -1.294231,0.416534 -0.245457,0 -0.528105,-0.04463 l -0.08926,-0.01488 v 1.53225 z m 1.643822,-4.477741 q -0.27521,0 -0.557858,0.111572 l -0.08926,0.03719 v 1.948785 q 0.334715,0.04463 0.542982,0.04463 0.431411,0 0.587611,-0.252895 0.163638,-0.252896 0.163638,-0.862821 0,-1.026459 -0.647115,-1.026459 z"
         style="letter-spacing:1.05833328px;stroke-width:0.35277775"
         id="path4593" />
      <path
         d="m 42.84409,77.936584 h -0.996706 v -5.206675 h 0.996706 v 1.666136 q 0.51323,-0.267772 0.922325,-0.267772 0.743811,0 1.026459,0.438849 0.282648,0.438848 0.282648,1.353735 v 2.015727 h -0.996706 v -1.993412 q 0,-0.468601 -0.111572,-0.691745 -0.111571,-0.230581 -0.446286,-0.230581 -0.290086,0 -0.580173,0.08926 l -0.09669,0.02975 z"
         style="letter-spacing:1.05833328px;stroke-width:0.35277775"
         id="path4595" />
      <path
         d="m 46.972385,76.411772 v -0.907449 h 2.20168 v 0.907449 z"
         style="letter-spacing:1.05833328px;stroke-width:0.35277775"
         id="path4597" />
      <path
         d="m 52.911629,74.128273 q 0.781001,0 1.13803,0.43141 0.364468,0.423973 0.364468,1.524813 0,1.10084 -0.416534,1.524812 -0.416534,0.416534 -1.435555,0.416534 -0.319839,0 -1.167783,-0.07438 l -0.282648,-0.02975 v -5.191799 h 0.996706 v 1.599193 q 0.476039,-0.200829 0.803316,-0.200829 z m -0.349591,3.004996 q 0.498353,0 0.669429,-0.23802 0.171077,-0.245457 0.171077,-0.870258 0,-1.004145 -0.624801,-1.004145 -0.297524,0 -0.565296,0.07438 l -0.104134,0.02232 v 1.985974 q 0.342153,0.02975 0.453725,0.02975 z"
         style="letter-spacing:1.05833328px;stroke-width:0.35277775"
         id="path4599" />
      <path
         d="m 59.071923,75.377875 v 1.547127 q 0.01488,0.178514 0.05951,0.252895 0.04463,0.06694 0.185952,0.0967 l -0.02975,0.751249 q -0.379344,0 -0.609925,-0.05207 -0.223143,-0.05207 -0.453724,-0.208267 -0.535544,0.260334 -1.093402,0.260334 -1.152907,0 -1.152907,-1.21985 0,-0.595049 0.319839,-0.840506 0.319838,-0.252896 0.98183,-0.297524 l 0.795877,-0.05951 v -0.230582 q 0,-0.230581 -0.104133,-0.3124 -0.104134,-0.08926 -0.334715,-0.08926 l -1.398364,0.0595 -0.02975,-0.691744 q 0.795878,-0.215705 1.509936,-0.215705 0.721497,0 1.033897,0.297525 0.319839,0.297524 0.319839,0.952077 z m -1.673574,0.981831 q -0.416534,0.03719 -0.416534,0.446286 0,0.409096 0.364467,0.409096 0.282648,0 0.617363,-0.08926 l 0.111571,-0.02975 v -0.795877 z"
         style="letter-spacing:1.05833328px;stroke-width:0.35277775"
         id="path4601" />
      <path
         d="m 63.75796,75.147294 q -0.922326,-0.11901 -1.294231,-0.11901 -0.364467,0 -0.476039,0.06694 -0.104133,0.06694 -0.104133,0.215705 0,0.141324 0.141324,0.200829 0.148762,0.05207 0.74381,0.163639 0.602487,0.104133 0.855383,0.349591 0.252896,0.245457 0.252896,0.795877 0,1.204974 -1.49506,1.204974 -0.490915,0 -1.190097,-0.133886 l -0.23802,-0.04463 0.02975,-0.833068 q 0.922325,0.11901 1.279354,0.11901 0.364467,0 0.490915,-0.06694 0.133886,-0.07438 0.133886,-0.215705 0,-0.141324 -0.141324,-0.208267 -0.133886,-0.06694 -0.714058,-0.163639 -0.572735,-0.09669 -0.855383,-0.327276 -0.282648,-0.230582 -0.282648,-0.818192 0,-0.595049 0.401658,-0.892573 0.401658,-0.304963 1.033897,-0.304963 0.438848,0 1.197535,0.141324 l 0.245458,0.04463 z"
         style="letter-spacing:1.05833328px;stroke-width:0.35277775"
         id="path4603" />
      <path
         d="m 66.479872,76.50103 q 0.0074,0.342153 0.178515,0.498353 0.178514,0.148762 0.505791,0.148762 0.691744,0 1.234726,-0.04463 l 0.208267,-0.02231 0.01488,0.736373 q -0.855382,0.208267 -1.547126,0.208267 -0.840506,0 -1.21985,-0.446287 -0.379343,-0.446286 -0.379343,-1.450431 0,-2.000851 1.643822,-2.000851 1.621507,0 1.621507,1.681013 l -0.07438,0.691744 z m 1.279355,-0.758687 q 0,-0.446287 -0.141324,-0.617363 -0.141324,-0.178515 -0.498353,-0.178515 -0.349592,0 -0.498354,0.185953 -0.141324,0.178514 -0.148762,0.609925 z"
         style="letter-spacing:1.05833328px;stroke-width:0.35277775"
         id="path4605" />
      <path
         d="m 73.672901,72.729909 v 5.206675 h -0.989268 v -0.1562 q -0.520668,0.245458 -0.900011,0.245458 -0.810754,0 -1.130592,-0.468601 -0.319839,-0.468601 -0.319839,-1.480184 0,-1.01902 0.379343,-1.480183 0.386782,-0.468601 1.160345,-0.468601 0.23802,0 0.661992,0.07438 l 0.141324,0.02975 v -1.502498 z m -1.10084,4.314103 0.104134,-0.02231 v -1.956222 q -0.409096,-0.07438 -0.728935,-0.07438 -0.602486,0 -0.602486,1.071087 0,0.580173 0.133886,0.82563 0.133886,0.245458 0.438848,0.245458 0.3124,0 0.654553,-0.08926 z"
         style="letter-spacing:1.05833328px;stroke-width:0.35277775"
         id="path4607" />
      <path
         d="m 80.144812,77.936584 h -1.703326 v -5.057913 h 1.703326 q 0.654554,0 1.078526,0.141324 0.423972,0.133886 0.654553,0.453725 0.23802,0.3124 0.327277,0.74381 0.08926,0.423973 0.08926,1.108279 0,0.684306 -0.08182,1.13803 -0.08182,0.446287 -0.3124,0.803316 -0.223143,0.349591 -0.654554,0.513229 -0.43141,0.1562 -1.10084,0.1562 z m 1.078526,-2.008289 q 0.01488,-0.238019 0.01488,-0.654553 0,-0.423972 -0.02975,-0.676868 -0.02975,-0.252896 -0.141324,-0.461163 -0.111572,-0.208267 -0.334715,-0.282648 -0.215705,-0.08182 -0.587611,-0.08182 h -0.676868 v 3.272768 h 0.676868 q 0.557858,0 0.810754,-0.282649 0.215705,-0.230581 0.267772,-0.833068 z"
         style="letter-spacing:1.05833328px;stroke-width:0.35277775"
         id="path4609" />
      <path
         d="M 84.161074,77.936584 V 74.21753 h 0.996706 v 3.719054 z m 0,-4.195092 v -1.011583 h 0.996706 v 1.011583 z"
         style="letter-spacing:1.05833328px;stroke-width:0.35277775"
         id="path4611" />
      <path
         d="m 90.506504,78.397747 q 0,0.639677 -0.490915,0.94464 -0.490915,0.304962 -1.331421,0.304962 -0.833068,0 -1.286793,-0.223143 -0.446286,-0.223143 -0.446286,-0.810754 0,-0.468601 0.535543,-0.885135 -0.27521,-0.185952 -0.27521,-0.565296 0,-0.148762 0.223144,-0.490915 l 0.06694,-0.104133 q -0.505792,-0.364468 -0.505792,-1.071088 0,-0.714058 0.423972,-1.033897 0.431411,-0.319839 1.138031,-0.319839 0.319838,0 0.632239,0.07438 l 0.11901,0.02232 1.197535,-0.03719 v 0.795878 l -0.557858,-0.04463 q 0.163638,0.252896 0.163638,0.505792 0,0.74381 -0.379343,1.026458 -0.379344,0.282649 -1.190097,0.282649 -0.171077,0 -0.304963,-0.02975 -0.07438,0.193391 -0.07438,0.319839 0,0.119009 0.126448,0.163638 0.126448,0.04463 0.595049,0.05207 0.937201,0.0074 1.279354,0.252896 0.342153,0.238019 0.342153,0.870258 z m -2.573585,0.111572 q 0,0.319838 0.781001,0.319838 0.78844,0 0.78844,-0.371905 0,-0.200829 -0.133886,-0.260334 -0.133886,-0.05207 -0.565297,-0.05951 l -0.669429,-0.05207 q -0.200829,0.200829 -0.200829,0.423972 z m 0.05951,-3.042186 q 0,0.542982 0.565296,0.542982 0.572734,0 0.572734,-0.542982 0,-0.55042 -0.572734,-0.55042 -0.565296,0 -0.565296,0.55042 z"
         style="letter-spacing:1.05833328px;stroke-width:0.35277775"
         id="path4613" />
      <path
         d="M 92.161402,77.936584 V 74.21753 h 0.996706 v 3.719054 z m 0,-4.195092 v -1.011583 h 0.996706 v 1.011583 z"
         style="letter-spacing:1.05833328px;stroke-width:0.35277775"
         id="path4615" />
      <path
         d="m 97.197725,75.065475 h -0.914887 v 1.524812 q 0,0.223143 0.0074,0.319839 0.01488,0.08926 0.08182,0.1562 0.07438,0.06694 0.223143,0.06694 l 0.565297,-0.01488 0.04463,0.795877 q -0.498353,0.111572 -0.758687,0.111572 -0.669429,0 -0.914887,-0.297525 -0.245458,-0.304962 -0.245458,-1.115716 V 75.065475 H 94.847283 V 74.21753 h 0.438848 v -1.033897 h 0.996707 v 1.033897 h 0.914887 z"
         style="letter-spacing:1.05833328px;stroke-width:0.35277775"
         id="path4617" />
      <path
         d="m 101.74662,75.377875 v 1.547127 q 0.0149,0.178514 0.0595,0.252895 0.0446,0.06694 0.18595,0.0967 l -0.0298,0.751249 q -0.37934,0 -0.60993,-0.05207 -0.22314,-0.05207 -0.45372,-0.208267 -0.53554,0.260334 -1.093402,0.260334 -1.152906,0 -1.152906,-1.21985 0,-0.595049 0.319838,-0.840506 0.319839,-0.252896 0.981831,-0.297524 l 0.795879,-0.05951 v -0.230582 q 0,-0.230581 -0.10414,-0.3124 -0.10413,-0.08926 -0.33471,-0.08926 l -1.398365,0.0595 -0.02975,-0.691744 q 0.795878,-0.215705 1.509937,-0.215705 0.7215,0 1.0339,0.297525 0.31983,0.297524 0.31983,0.952077 z m -1.67357,0.981831 q -0.416534,0.03719 -0.416534,0.446286 0,0.409096 0.364464,0.409096 0.28265,0 0.61737,-0.08926 l 0.11157,-0.02975 v -0.795877 z"
         style="letter-spacing:1.05833328px;stroke-width:0.35277775"
         id="path4619" />
      <path
         d="m 103.80701,77.936584 v -5.206675 h 0.99671 v 5.206675 z"
         style="letter-spacing:1.05833328px;stroke-width:0.35277775"
         id="path4621" />
      <path
         d="m 109.16099,73.78612 v -0.907449 h 3.71906 v 0.907449 h -1.33886 v 4.150464 h -1.02646 V 73.78612 Z"
         style="letter-spacing:1.05833328px;stroke-width:0.35277775"
         id="path4623" />
      <path
         d="m 115.48842,77.936584 h -0.99671 v -5.206675 h 0.99671 v 1.666136 q 0.51322,-0.267772 0.92232,-0.267772 0.74381,0 1.02646,0.438849 0.28265,0.438848 0.28265,1.353735 v 2.015727 h -0.99671 v -1.993412 q 0,-0.468601 -0.11157,-0.691745 -0.11157,-0.230581 -0.44629,-0.230581 -0.29008,0 -0.58017,0.08926 l -0.0967,0.02975 z"
         style="letter-spacing:1.05833328px;stroke-width:0.35277775"
         id="path4625" />
      <path
         d="M 119.66134,77.936584 V 74.21753 h 0.98927 v 0.39422 q 0.6248,-0.371905 1.1901,-0.483477 v 1.004145 q -0.60249,0.126448 -1.0339,0.260334 l -0.14876,0.05207 v 2.491766 z"
         style="letter-spacing:1.05833328px;stroke-width:0.35277775"
         id="path4627" />
      <path
         d="m 124.2981,76.50103 q 0.007,0.342153 0.17851,0.498353 0.17852,0.148762 0.50579,0.148762 0.69175,0 1.23473,-0.04463 l 0.20827,-0.02231 0.0149,0.736373 q -0.85538,0.208267 -1.54712,0.208267 -0.84051,0 -1.21985,-0.446287 -0.37935,-0.446286 -0.37935,-1.450431 0,-2.000851 1.64383,-2.000851 1.6215,0 1.6215,1.681013 l -0.0744,0.691744 z m 1.27935,-0.758687 q 0,-0.446287 -0.14132,-0.617363 -0.14133,-0.178515 -0.49835,-0.178515 -0.3496,0 -0.49836,0.185953 -0.14132,0.178514 -0.14876,0.609925 z"
         style="letter-spacing:1.05833328px;stroke-width:0.35277775"
         id="path4629" />
      <path
         d="m 131.17873,75.377875 v 1.547127 q 0.0149,0.178514 0.0595,0.252895 0.0446,0.06694 0.18595,0.0967 l -0.0298,0.751249 q -0.37935,0 -0.60993,-0.05207 -0.22314,-0.05207 -0.45372,-0.208267 -0.53555,0.260334 -1.09341,0.260334 -1.1529,0 -1.1529,-1.21985 0,-0.595049 0.31984,-0.840506 0.31983,-0.252896 0.98183,-0.297524 l 0.79587,-0.05951 v -0.230582 q 0,-0.230581 -0.10413,-0.3124 -0.10413,-0.08926 -0.33471,-0.08926 l -1.39837,0.0595 -0.0298,-0.691744 q 0.79588,-0.215705 1.50993,-0.215705 0.7215,0 1.0339,0.297525 0.31984,0.297524 0.31984,0.952077 z m -1.67357,0.981831 q -0.41654,0.03719 -0.41654,0.446286 0,0.409096 0.36447,0.409096 0.28265,0 0.61736,-0.08926 l 0.11157,-0.02975 v -0.795877 z"
         style="letter-spacing:1.05833328px;stroke-width:0.35277775"
         id="path4631" />
      <path
         d="m 136.35569,72.729909 v 5.206675 h -0.98927 v -0.1562 q -0.52067,0.245458 -0.90001,0.245458 -0.81076,0 -1.1306,-0.468601 -0.31983,-0.468601 -0.31983,-1.480184 0,-1.01902 0.37934,-1.480183 0.38678,-0.468601 1.16034,-0.468601 0.23802,0 0.662,0.07438 l 0.14132,0.02975 v -1.502498 z m -1.10084,4.314103 0.10413,-0.02231 v -1.956222 q -0.4091,-0.07438 -0.72893,-0.07438 -0.60249,0 -0.60249,1.071087 0,0.580173 0.13388,0.82563 0.13389,0.245458 0.43885,0.245458 0.3124,0 0.65456,-0.08926 z"
         style="letter-spacing:1.05833328px;stroke-width:0.35277775"
         id="path4633" />
    </g>
  </g>
</svg>
