<?xml version="1.0" encoding="UTF-8" standalone="no"?>
<!-- Created with Inkscape (http://www.inkscape.org/) -->

<svg
   xmlns:dc="http://purl.org/dc/elements/1.1/"
   xmlns:cc="http://creativecommons.org/ns#"
   xmlns:rdf="http://www.w3.org/1999/02/22-rdf-syntax-ns#"
   xmlns:svg="http://www.w3.org/2000/svg"
   xmlns="http://www.w3.org/2000/svg"
   xmlns:sodipodi="http://sodipodi.sourceforge.net/DTD/sodipodi-0.dtd"
   xmlns:inkscape="http://www.inkscape.org/namespaces/inkscape"
   width="805.54517"
   height="265.76367"
   viewBox="0 0 213.13382 70.31664"
   version="1.1"
   id="svg384"
   inkscape:version="0.92.3 (2405546, 2018-03-11)"
   sodipodi:docname="GanisterHorizontal.svg">
  <defs
     id="defs378">
    <clipPath
       clipPathUnits="userSpaceOnUse"
       id="clipPath112">
      <path
         d="M 0,1560 H 1170 V 0 H 0 Z"
         id="path110"
         inkscape:connector-curvature="0" />
    </clipPath>
  </defs>
  <sodipodi:namedview
     id="base"
     pagecolor="#ffffff"
     bordercolor="#666666"
     borderopacity="1.0"
     inkscape:pageopacity="0.0"
     inkscape:pageshadow="2"
     inkscape:zoom="0.35"
     inkscape:cx="905.24707"
     inkscape:cy="-991.53442"
     inkscape:document-units="mm"
     inkscape:current-layer="layer1"
     showgrid="false"
     units="px"
     fit-margin-top="2"
     fit-margin-bottom="2"
     fit-margin-left="5"
     fit-margin-right="5"
     inkscape:window-width="1920"
     inkscape:window-height="1017"
     inkscape:window-x="-8"
     inkscape:window-y="-8"
     inkscape:window-maximized="1" />
  <metadata
     id="metadata381">
    <rdf:RDF>
      <cc:Work
         rdf:about="">
        <dc:format>image/svg+xml</dc:format>
        <dc:type
           rdf:resource="http://purl.org/dc/dcmitype/StillImage" />
        <dc:title></dc:title>
      </cc:Work>
    </rdf:RDF>
  </metadata>
  <g
     inkscape:label="Calque 1"
     inkscape:groupmode="layer"
     id="layer1"
     transform="translate(66.501435,-20.692867)">
    <g
       transform="matrix(0.35277777,0,0,-0.35277777,-152.79596,468.60118)"
       id="g106">
      <g
         id="g108"
         clip-path="url(#clipPath112)">
        <g
           id="g114"
           transform="translate(266.1519,1227.9897)">
          <path
             d="m 0,0 c 9.823,0 17.786,-7.966 17.788,-17.789 v -10.297 l 51.835,29.929 -8.94,5.162 c -8.508,4.909 -11.424,15.789 -6.51,24.296 1.439,2.492 3.395,4.485 5.646,5.959 L -8.246,-2.034 C -5.778,-0.74 -2.977,0 0,0"
             style="fill:#33bcad;fill-opacity:1;fill-rule:nonzero;stroke:none"
             id="path116"
             inkscape:connector-curvature="0" />
        </g>
        <g
           id="g118"
           transform="translate(275.0013,1145.2141)">
          <path
             d="M 0,0 8.936,-5.164 8.939,54.69 0.023,49.545 c -8.51,-4.913 -19.389,-1.998 -24.3,6.511 -1.487,2.584 -2.248,5.383 -2.359,8.167 v -78.602 c 0.15,2.685 0.899,5.376 2.336,7.869 C -19.388,1.996 -8.507,4.909 0,0"
             style="fill:#bfd72f;fill-opacity:1;fill-rule:nonzero;stroke:none"
             id="path120"
             inkscape:connector-curvature="0" />
        </g>
        <g
           id="g122"
           transform="translate(250.7245,1201.2703)">
          <path
             d="m 0,0 c 4.911,-8.509 15.79,-11.424 24.3,-6.511 l 8.916,5.145 V 8.93 c -0.003,9.824 -7.965,17.789 -17.789,17.789 -2.977,0 -5.778,-0.739 -8.245,-2.034 L 6.512,24.299 C 5.983,23.992 5.476,23.664 4.989,23.316 4.983,23.309 4.976,23.304 4.968,23.301 4.524,22.979 4.101,22.634 3.695,22.28 3.6,22.2 3.512,22.114 3.423,22.031 3.105,21.743 2.802,21.445 2.511,21.136 2.372,20.992 2.236,20.843 2.107,20.692 1.87,20.428 1.645,20.154 1.428,19.878 1.273,19.682 1.124,19.489 0.987,19.286 0.801,19.032 0.623,18.775 0.454,18.513 0.31,18.282 0.165,18.044 0.032,17.812 c -0.148,-0.254 -0.285,-0.507 -0.42,-0.761 -0.131,-0.263 -0.261,-0.529 -0.385,-0.802 -0.11,-0.24 -0.215,-0.482 -0.313,-0.723 -0.122,-0.309 -0.235,-0.628 -0.345,-0.95 -0.07,-0.203 -0.136,-0.407 -0.198,-0.617 -0.112,-0.393 -0.219,-0.79 -0.305,-1.196 -0.031,-0.131 -0.061,-0.267 -0.091,-0.4 -0.099,-0.515 -0.183,-1.037 -0.24,-1.566 C -2.267,10.773 -2.267,10.75 -2.271,10.728 -2.332,10.137 -2.362,9.536 -2.36,8.932 V 8.167 C -2.248,5.383 -1.487,2.584 0,0"
             style="fill:#00ab4e;fill-opacity:1;fill-rule:nonzero;stroke:none"
             id="path124"
             inkscape:connector-curvature="0" />
        </g>
        <g
           id="g126"
           transform="translate(351.1761,1259.2664)">
          <path
             d="m 0,0 c 4.912,-8.509 1.998,-19.387 -6.514,-24.302 l -8.887,-5.132 60.703,-35.047 c 8.506,-4.912 19.383,-1.995 24.298,6.511 4.909,8.511 1.994,19.384 -6.514,24.302 L -6.551,6.537 C -6.731,6.638 -6.915,6.721 -7.097,6.815 -4.233,5.304 -1.741,3.01 0,0"
             style="fill:#00c0f3;fill-opacity:1;fill-rule:nonzero;stroke:none"
             id="path128"
             inkscape:connector-curvature="0" />
        </g>
        <g
           id="g130"
           transform="translate(326.8351,1234.9949)">
          <path
             d="m 0,0 8.94,-5.162 8.887,5.131 c 8.512,4.916 11.426,15.794 6.514,24.302 -1.741,3.011 -4.233,5.305 -7.097,6.816 -0.242,0.127 -0.484,0.253 -0.725,0.374 -0.365,0.168 -0.733,0.325 -1.111,0.469 -0.125,0.049 -0.25,0.106 -0.377,0.15 -0.472,0.173 -0.953,0.327 -1.438,0.462 -0.031,0.007 -0.063,0.014 -0.089,0.024 C 9.117,33.733 4.283,33.231 0.042,30.779 L -0.864,30.255 C -3.115,28.781 -5.071,26.788 -6.51,24.296 -11.424,15.789 -8.508,4.909 0,0"
             style="fill:#0080c6;fill-opacity:1;fill-rule:nonzero;stroke:none"
             id="path132"
             inkscape:connector-curvature="0" />
        </g>
        <g
           id="g134"
           transform="translate(413.9711,1145.374)">
          <path
             d="m 0,0 -69.38,40.056 c -8.508,4.911 -19.385,1.995 -24.296,-6.51 -4.915,-8.511 -2,-19.387 6.508,-24.3 l 42.947,-24.797 26.7,15.416 C -11.911,3.107 -5.284,2.923 0,0"
             style="fill:#5c2d91;fill-opacity:1;fill-rule:nonzero;stroke:none"
             id="path136"
             inkscape:connector-curvature="0" />
        </g>
        <g
           id="g138"
           transform="translate(320.2991,1080.7328)">
          <path
             d="m 0,0 c -4.907,8.509 -1.997,19.394 6.515,24.303 l 8.888,5.133 -51.764,29.882 V 49.056 c 0,-9.824 -7.96,-17.789 -17.788,-17.789 -3.479,0 -6.707,1.011 -9.451,2.739 0.174,-0.115 0.337,-0.233 0.516,-0.337 L 6.553,-6.536 C 6.735,-6.641 6.919,-6.718 7.103,-6.814 4.237,-5.306 1.741,-3.008 0,0"
             style="fill:#faa619;fill-opacity:1;fill-rule:nonzero;stroke:none"
             id="path140"
             inkscape:connector-curvature="0" />
        </g>
        <g
           id="g142"
           transform="translate(266.1506,1111.9994)">
          <path
             d="m 0,0 c 9.827,0 17.787,7.966 17.787,17.789 v 10.262 l -8.936,5.164 c -8.508,4.908 -19.388,1.996 -24.301,-6.511 -1.437,-2.492 -2.185,-5.183 -2.336,-7.868 v -1.047 c -0.002,-4.902 1.98,-9.337 5.184,-12.554 0.023,-0.018 0.046,-0.042 0.067,-0.063 0.357,-0.352 0.732,-0.692 1.117,-1.019 0.104,-0.084 0.21,-0.169 0.317,-0.252 0.315,-0.253 0.636,-0.491 0.965,-0.721 C -9.912,3.026 -9.681,2.879 -9.452,2.739 -6.708,1.011 -3.48,0 0,0"
             style="fill:#bc9632;fill-opacity:1;fill-rule:nonzero;stroke:none"
             id="path144"
             inkscape:connector-curvature="0" />
        </g>
        <g
           id="g146"
           transform="translate(396.4404,1114.4154)">
          <path
             d="M 0,0 -26.691,15.407 -60.739,-4.247 -51.8,-9.408 c 8.505,-4.91 11.427,-15.791 6.512,-24.301 -1.434,-2.48 -3.377,-4.47 -5.62,-5.942 L 17.804,0.016 c 0.015,0.009 0.031,0.019 0.049,0.028 C 12.52,-3.057 5.727,-3.305 0,0"
             style="fill:#d8098c;fill-opacity:1;fill-rule:nonzero;stroke:none"
             id="path148"
             inkscape:connector-curvature="0" />
        </g>
        <g
           id="g150"
           transform="translate(415.8073,1115.4482)">
          <path
             d="M 0,0 C 0.402,0.293 0.78,0.603 1.152,0.923 1.235,0.995 1.326,1.064 1.414,1.141 1.71,1.405 1.988,1.695 2.27,1.982 2.412,2.125 2.558,2.265 2.698,2.417 2.899,2.643 3.086,2.88 3.282,3.114 c 0.187,0.232 0.382,0.461 0.56,0.705 0.138,0.186 0.26,0.385 0.392,0.578 0.209,0.302 0.412,0.606 0.603,0.927 0.11,0.19 0.211,0.378 0.315,0.569 0.175,0.329 0.349,0.659 0.505,0.992 0.101,0.223 0.196,0.446 0.288,0.671 0.129,0.313 0.253,0.62 0.361,0.928 0.088,0.252 0.168,0.503 0.246,0.759 0.084,0.298 0.173,0.6 0.251,0.903 0.059,0.251 0.112,0.507 0.165,0.76 0.062,0.32 0.123,0.644 0.166,0.967 0.033,0.224 0.058,0.448 0.081,0.669 0.039,0.373 0.069,0.746 0.084,1.118 0.007,0.166 0.009,0.337 0.009,0.508 0.01,0.433 -0.002,0.862 -0.026,1.294 -0.005,0.109 -0.018,0.214 -0.026,0.324 -0.038,0.48 -0.093,0.961 -0.169,1.439 -0.012,0.065 -0.024,0.123 -0.03,0.188 -0.095,0.508 -0.202,1.013 -0.336,1.507 -0.01,0.045 -0.02,0.085 -0.033,0.13 -0.138,0.508 -0.297,1.004 -0.477,1.494 -0.017,0.052 -0.039,0.101 -0.06,0.153 -0.179,0.477 -0.386,0.95 -0.604,1.412 -0.035,0.069 -0.073,0.141 -0.108,0.214 -0.226,0.442 -0.461,0.879 -0.722,1.311 -0.033,0.059 -0.071,0.107 -0.104,0.159 -1.494,2.398 -3.573,4.473 -6.19,5.983 l -0.259,0.15 c -5.284,2.922 -11.911,3.106 -17.521,-0.135 l -26.7,-15.417 26.69,-15.407 c 5.727,-3.305 12.52,-3.056 17.853,0.044 0.473,0.279 0.92,0.573 1.358,0.885 C -0.105,-0.068 -0.05,-0.038 0,0"
             style="fill:#932784;fill-opacity:1;fill-rule:nonzero;stroke:none"
             id="path152"
             inkscape:connector-curvature="0" />
        </g>
        <g
           id="g154"
           transform="translate(344.6408,1105.0076)">
          <path
             d="m 0,0 -8.939,5.161 -8.888,-5.133 c -8.512,-4.908 -11.422,-15.794 -6.515,-24.303 1.741,-3.008 4.237,-5.305 7.103,-6.814 0.239,-0.129 0.478,-0.253 0.721,-0.374 0.364,-0.168 0.738,-0.328 1.112,-0.475 0.125,-0.048 0.249,-0.099 0.373,-0.144 0.478,-0.173 0.96,-0.331 1.446,-0.464 0.026,-0.008 0.057,-0.015 0.079,-0.022 4.391,-1.168 9.225,-0.665 13.467,1.786 l 0.933,0.538 c 2.242,1.473 4.186,3.463 5.62,5.943 C 11.427,-15.791 8.505,-4.91 0,0"
             style="fill:#c4151c;fill-opacity:1;fill-rule:nonzero;stroke:none"
             id="path156"
             inkscape:connector-curvature="0" />
        </g>
        <g
           id="g158"
           transform="translate(343.3047,1250.2971)">
          <path
             d="m 0,0 c 0,-4.173 -3.381,-7.554 -7.553,-7.554 -4.176,0 -7.558,3.381 -7.558,7.554 0,4.169 3.382,7.553 7.558,7.553 C -3.381,7.553 0,4.169 0,0"
             style="fill:#ffffff;fill-opacity:1;fill-rule:nonzero;stroke:none"
             id="path160"
             inkscape:connector-curvature="0" />
        </g>
        <g
           id="g162"
           transform="translate(273.7837,1210.1271)">
          <path
             d="m 0,0 c 0,-4.173 -3.38,-7.553 -7.553,-7.553 -4.171,0 -7.552,3.38 -7.552,7.553 0,4.17 3.381,7.554 7.552,7.554 C -3.38,7.554 0,4.17 0,0"
             style="fill:#ffffff;fill-opacity:1;fill-rule:nonzero;stroke:none"
             id="path164"
             inkscape:connector-curvature="0" />
        </g>
        <g
           id="g166"
           transform="translate(273.7837,1129.8643)">
          <path
             d="m 0,0 c 0,-4.174 -3.38,-7.557 -7.553,-7.557 -4.171,0 -7.552,3.383 -7.552,7.557 0,4.169 3.381,7.55 7.552,7.55 C -3.38,7.55 0,4.169 0,0"
             style="fill:#ffffff;fill-opacity:1;fill-rule:nonzero;stroke:none"
             id="path168"
             inkscape:connector-curvature="0" />
        </g>
        <g
           id="g170"
           transform="translate(343.278,1089.7034)">
          <path
             d="m 0,0 c 0,-4.173 -3.379,-7.555 -7.551,-7.555 -4.171,0 -7.555,3.382 -7.555,7.555 0,4.169 3.384,7.552 7.555,7.552 C -3.379,7.552 0,4.169 0,0"
             style="fill:#ffffff;fill-opacity:1;fill-rule:nonzero;stroke:none"
             id="path172"
             inkscape:connector-curvature="0" />
        </g>
        <g
           id="g174"
           transform="translate(412.8017,1129.7598)">
          <path
             d="m 0,0 c 0,-4.175 -3.379,-7.557 -7.551,-7.557 -4.169,0 -7.553,3.382 -7.553,7.557 0,4.169 3.384,7.547 7.553,7.547 C -3.379,7.547 0,4.169 0,0"
             style="fill:#ffffff;fill-opacity:1;fill-rule:nonzero;stroke:none"
             id="path176"
             inkscape:connector-curvature="0" />
        </g>
      </g>
    </g>
    <text
       style="font-variant:normal;font-weight:bold;font-stretch:normal;font-size:37.19473267px;font-family:'Titillium Web';-inkscape-font-specification:TitilliumWeb-Bold;writing-mode:lr-tb;fill:#58595b;fill-opacity:1;fill-rule:nonzero;stroke:none;stroke-width:0.35277775"
       id="text180"
       x="10.132771"
       y="62.37759">
      <tspan
         style="stroke-width:0.35277775"
         sodipodi:role="line"
         id="tspan178"
         x="10.132771"
         y="62.37759">Ganister</tspan>
    </text>
    <text
       style="font-variant:normal;font-weight:bold;font-stretch:normal;font-size:7.43810797px;font-family:'Titillium Web';-inkscape-font-specification:TitilliumWeb-SemiBold;writing-mode:lr-tb;fill:#a7a9ac;fill-opacity:1;fill-rule:nonzero;stroke:none;stroke-width:0.35277775"
       id="text184"
       x="21.98612"
       y="77.936584">
      <tspan
         sodipodi:role="line"
         id="tspan182"
         x="21.98612"
         y="77.936584"
         dx="0"
         style="letter-spacing:1.05833328px;stroke-width:0.35277775">Graph-based Digital Thread</tspan>
    </text>
  </g>
</svg>
