<?xml version="1.0" encoding="UTF-8" standalone="no"?>
<!-- Created with Inkscape (http://www.inkscape.org/) -->

<svg
   xmlns:dc="http://purl.org/dc/elements/1.1/"
   xmlns:cc="http://creativecommons.org/ns#"
   xmlns:rdf="http://www.w3.org/1999/02/22-rdf-syntax-ns#"
   xmlns:svg="http://www.w3.org/2000/svg"
   xmlns="http://www.w3.org/2000/svg"
   xmlns:sodipodi="http://sodipodi.sourceforge.net/DTD/sodipodi-0.dtd"
   xmlns:inkscape="http://www.inkscape.org/namespaces/inkscape"
   width="89.235504mm"
   height="84.913078mm"
   viewBox="0 0 89.235504 84.913078"
   version="1.1"
   id="svg260"
   inkscape:version="0.92.3 (2405546, 2018-03-11)"
   sodipodi:docname="ganisterLoginNoSub.svg">
  <defs
     id="defs254">
    <clipPath
       clipPathUnits="userSpaceOnUse"
       id="clipPath32">
      <path
         d="M 0,1560 H 1170 V 0 H 0 Z"
         id="path30"
         inkscape:connector-curvature="0" />
    </clipPath>
  </defs>
  <sodipodi:namedview
     id="base"
     pagecolor="#ffffff"
     bordercolor="#666666"
     borderopacity="1.0"
     inkscape:pageopacity="0.0"
     inkscape:pageshadow="2"
     inkscape:zoom="1.4"
     inkscape:cx="138.2798"
     inkscape:cy="29.119405"
     inkscape:document-units="mm"
     inkscape:current-layer="layer1"
     showgrid="false"
     inkscape:window-width="1920"
     inkscape:window-height="1017"
     inkscape:window-x="-8"
     inkscape:window-y="-8"
     inkscape:window-maximized="1"
     fit-margin-top="5"
     fit-margin-left="0"
     fit-margin-right="0"
     fit-margin-bottom="5" />
  <metadata
     id="metadata257">
    <rdf:RDF>
      <cc:Work
         rdf:about="">
        <dc:format>image/svg+xml</dc:format>
        <dc:type
           rdf:resource="http://purl.org/dc/dcmitype/StillImage" />
        <dc:title />
      </cc:Work>
    </rdf:RDF>
  </metadata>
  <g
     inkscape:label="Calque 1"
     inkscape:groupmode="layer"
     id="layer1"
     transform="translate(-1.7196149,-22.585571)">
    <g
       transform="matrix(0.35277777,0,0,-0.35277777,-56.694736,210.30876)"
       id="g26">
      <g
         id="g28"
         clip-path="url(#clipPath32)">
        <g
           id="g34"
           transform="translate(241.7236,488.6528)">
          <path
             d="m 0,0 c 7.165,0 12.974,-5.811 12.976,-12.976 v -7.511 L 50.786,1.344 44.265,5.11 c -6.206,3.58 -8.333,11.517 -4.749,17.722 1.049,1.818 2.476,3.272 4.118,4.347 L -6.015,-1.484 C -4.215,-0.54 -2.172,0 0,0"
             style="fill:#33bcad;fill-opacity:1;fill-rule:nonzero;stroke:none"
             id="path36"
             inkscape:connector-curvature="0" />
        </g>
        <g
           id="g38"
           transform="translate(248.1787,428.2729)">
          <path
             d="M 0,0 6.518,-3.767 6.52,39.893 0.017,36.14 c -6.207,-3.583 -14.143,-1.457 -17.726,4.75 -1.084,1.884 -1.64,3.926 -1.721,5.957 v -57.335 c 0.11,1.958 0.656,3.921 1.704,5.739 C -14.142,1.456 -6.206,3.581 0,0"
             style="fill:#bfd72f;fill-opacity:1;fill-rule:nonzero;stroke:none"
             id="path40"
             inkscape:connector-curvature="0" />
        </g>
        <g
           id="g42"
           transform="translate(230.4702,469.1624)">
          <path
             d="m 0,0 c 3.583,-6.206 11.518,-8.333 17.726,-4.749 l 6.503,3.752 V 6.514 C 24.227,13.68 18.419,19.49 11.253,19.49 9.082,19.49 7.039,18.951 5.239,18.006 L 4.75,17.725 C 4.364,17.501 3.994,17.262 3.639,17.007 3.635,17.003 3.629,16.999 3.624,16.997 3.3,16.762 2.992,16.51 2.695,16.252 2.626,16.193 2.562,16.131 2.497,16.07 2.265,15.86 2.044,15.643 1.832,15.418 1.731,15.313 1.631,15.204 1.537,15.093 1.364,14.901 1.2,14.701 1.042,14.5 0.929,14.357 0.82,14.216 0.72,14.068 0.585,13.883 0.454,13.695 0.332,13.504 0.226,13.336 0.121,13.162 0.023,12.993 -0.084,12.808 -0.185,12.623 -0.283,12.438 -0.378,12.246 -0.474,12.052 -0.564,11.853 -0.644,11.677 -0.721,11.501 -0.792,11.325 -0.881,11.1 -0.964,10.867 -1.044,10.632 -1.095,10.484 -1.143,10.336 -1.188,10.183 -1.27,9.896 -1.348,9.606 -1.411,9.31 -1.433,9.214 -1.456,9.115 -1.477,9.018 -1.549,8.643 -1.61,8.262 -1.652,7.876 -1.654,7.858 -1.654,7.842 -1.656,7.825 -1.701,7.395 -1.723,6.956 -1.721,6.516 V 5.958 C -1.64,3.926 -1.084,1.885 0,0"
             style="fill:#00ab4e;fill-opacity:1;fill-rule:nonzero;stroke:none"
             id="path44"
             inkscape:connector-curvature="0" />
        </g>
        <g
           id="g46"
           transform="translate(303.7436,511.4672)">
          <path
             d="m 0,0 c 3.583,-6.207 1.458,-14.142 -4.751,-17.727 l -6.483,-3.743 44.279,-25.565 c 6.205,-3.583 14.139,-1.455 17.724,4.749 3.581,6.208 1.454,14.139 -4.751,17.727 L -4.779,4.769 C -4.91,4.842 -5.044,4.903 -5.177,4.971 -3.088,3.869 -1.27,2.196 0,0"
             style="fill:#00c0f3;fill-opacity:1;fill-rule:nonzero;stroke:none"
             id="path48"
             inkscape:connector-curvature="0" />
        </g>
        <g
           id="g50"
           transform="translate(285.9883,493.7626)">
          <path
             d="m 0,0 6.521,-3.766 6.483,3.744 c 6.209,3.585 8.334,11.52 4.751,17.727 -1.27,2.195 -3.088,3.869 -5.176,4.971 -0.177,0.093 -0.354,0.185 -0.529,0.273 -0.267,0.122 -0.535,0.237 -0.811,0.342 -0.091,0.036 -0.182,0.077 -0.275,0.109 -0.344,0.126 -0.695,0.239 -1.049,0.337 C 9.893,23.742 9.869,23.748 9.85,23.755 6.65,24.606 3.124,24.24 0.031,22.452 L -0.63,22.069 C -2.272,20.994 -3.699,19.54 -4.749,17.723 -8.333,11.517 -6.206,3.581 0,0"
             style="fill:#0080c6;fill-opacity:1;fill-rule:nonzero;stroke:none"
             id="path52"
             inkscape:connector-curvature="0" />
        </g>
        <g
           id="g54"
           transform="translate(349.5488,428.3896)">
          <path
             d="m 0,0 -50.608,29.218 c -6.206,3.583 -14.141,1.456 -17.723,-4.748 -3.585,-6.208 -1.459,-14.142 4.747,-17.726 l 31.327,-18.088 19.477,11.245 C -8.688,2.266 -3.855,2.132 0,0"
             style="fill:#5c2d91;fill-opacity:1;fill-rule:nonzero;stroke:none"
             id="path56"
             inkscape:connector-curvature="0" />
        </g>
        <g
           id="g58"
           transform="translate(281.2207,381.2377)">
          <path
             d="m 0,0 c -3.58,6.207 -1.457,14.147 4.752,17.728 l 6.483,3.744 -37.759,21.797 v -7.486 c 0,-7.165 -5.806,-12.976 -12.974,-12.976 -2.538,0 -4.893,0.738 -6.895,1.998 0.127,-0.083 0.246,-0.17 0.377,-0.245 L 4.78,-4.768 C 4.913,-4.844 5.047,-4.9 5.181,-4.97 3.09,-3.87 1.27,-2.194 0,0"
             style="fill:#faa619;fill-opacity:1;fill-rule:nonzero;stroke:none"
             id="path60"
             inkscape:connector-curvature="0" />
        </g>
        <g
           id="g62"
           transform="translate(241.7226,404.0448)">
          <path
             d="m 0,0 c 7.169,0 12.975,5.811 12.975,12.976 v 7.485 l -6.519,3.767 c -6.205,3.581 -14.142,1.456 -17.726,-4.749 -1.048,-1.818 -1.594,-3.781 -1.704,-5.739 V 12.976 C -12.976,9.4 -11.53,6.165 -9.192,3.819 -9.175,3.805 -9.159,3.788 -9.144,3.772 -8.883,3.516 -8.609,3.268 -8.329,3.029 -8.253,2.968 -8.175,2.906 -8.098,2.845 -7.868,2.661 -7.634,2.487 -7.394,2.32 -7.23,2.207 -7.062,2.1 -6.895,1.998 -4.893,0.738 -2.538,0 0,0"
             style="fill:#bc9632;fill-opacity:1;fill-rule:nonzero;stroke:none"
             id="path64"
             inkscape:connector-curvature="0" />
        </g>
        <g
           id="g66"
           transform="translate(336.7612,405.8071)">
          <path
             d="m 0,0 -19.469,11.239 -24.836,-14.337 6.52,-3.764 c 6.204,-3.582 8.335,-11.519 4.75,-17.726 -1.046,-1.81 -2.464,-3.261 -4.099,-4.335 L 12.987,0.012 c 0.011,0.006 0.023,0.013 0.035,0.02 C 9.132,-2.23 4.178,-2.411 0,0"
             style="fill:#d8098c;fill-opacity:1;fill-rule:nonzero;stroke:none"
             id="path68"
             inkscape:connector-curvature="0" />
        </g>
        <g
           id="g70"
           transform="translate(350.8882,406.5605)">
          <path
             d="m 0,0 c 0.293,0.214 0.569,0.44 0.84,0.673 0.061,0.053 0.127,0.103 0.191,0.159 0.216,0.193 0.419,0.404 0.625,0.614 0.103,0.104 0.21,0.206 0.312,0.317 0.147,0.165 0.283,0.338 0.426,0.509 0.136,0.169 0.278,0.336 0.408,0.514 0.101,0.136 0.19,0.281 0.287,0.422 0.152,0.22 0.3,0.441 0.439,0.676 0.08,0.138 0.154,0.276 0.23,0.415 0.128,0.24 0.255,0.48 0.368,0.723 C 4.2,5.185 4.27,5.348 4.336,5.512 4.431,5.74 4.521,5.964 4.6,6.188 4.664,6.372 4.723,6.556 4.779,6.742 4.841,6.959 4.906,7.18 4.962,7.401 c 0.043,0.183 0.082,0.37 0.121,0.554 0.045,0.234 0.089,0.47 0.121,0.706 0.024,0.163 0.042,0.326 0.059,0.488 0.028,0.272 0.05,0.544 0.061,0.815 0.005,0.121 0.007,0.246 0.007,0.371 0.007,0.315 -0.002,0.629 -0.019,0.944 -0.004,0.079 -0.014,0.156 -0.019,0.236 -0.028,0.35 -0.068,0.701 -0.124,1.049 -0.008,0.048 -0.017,0.09 -0.021,0.138 -0.069,0.37 -0.148,0.738 -0.245,1.099 -0.007,0.033 -0.015,0.062 -0.025,0.095 -0.1,0.37 -0.216,0.732 -0.347,1.09 -0.013,0.037 -0.029,0.074 -0.044,0.111 -0.131,0.348 -0.281,0.693 -0.441,1.03 -0.025,0.05 -0.053,0.103 -0.078,0.156 -0.166,0.323 -0.337,0.642 -0.527,0.957 -0.024,0.043 -0.052,0.078 -0.076,0.116 -1.09,1.749 -2.607,3.262 -4.515,4.364 l -0.189,0.109 c -3.855,2.132 -8.688,2.266 -12.781,-0.099 L -33.596,10.485 -14.127,-0.753 c 4.178,-2.411 9.132,-2.23 13.023,0.032 0.345,0.203 0.671,0.417 0.99,0.645 C -0.077,-0.05 -0.036,-0.027 0,0"
             style="fill:#932784;fill-opacity:1;fill-rule:nonzero;stroke:none"
             id="path72"
             inkscape:connector-curvature="0" />
        </g>
        <g
           id="g74"
           transform="translate(298.9765,398.9447)">
          <path
             d="m 0,0 -6.521,3.765 -6.482,-3.744 c -6.209,-3.581 -8.332,-11.521 -4.753,-17.728 1.27,-2.194 3.091,-3.87 5.181,-4.97 0.174,-0.094 0.349,-0.185 0.526,-0.274 0.265,-0.122 0.538,-0.238 0.811,-0.346 0.091,-0.035 0.182,-0.072 0.272,-0.105 0.349,-0.126 0.701,-0.242 1.055,-0.339 0.019,-0.005 0.041,-0.01 0.057,-0.015 3.204,-0.852 6.729,-0.485 9.824,1.302 l 0.68,0.393 c 1.636,1.074 3.054,2.526 4.1,4.335 C 8.335,-11.519 6.204,-3.582 0,0"
             style="fill:#c4151c;fill-opacity:1;fill-rule:nonzero;stroke:none"
             id="path76"
             inkscape:connector-curvature="0" />
        </g>
        <g
           id="g78"
           transform="translate(298.0019,504.9247)">
          <path
             d="m 0,0 c 0,-3.044 -2.466,-5.51 -5.51,-5.51 -3.046,0 -5.512,2.466 -5.512,5.51 0,3.041 2.466,5.51 5.512,5.51 C -2.466,5.51 0,3.041 0,0"
             style="fill:#ffffff;fill-opacity:1;fill-rule:nonzero;stroke:none"
             id="path80"
             inkscape:connector-curvature="0" />
        </g>
        <g
           id="g82"
           transform="translate(247.2905,475.623)">
          <path
             d="m 0,0 c 0,-3.044 -2.465,-5.51 -5.509,-5.51 -3.043,0 -5.51,2.466 -5.51,5.51 0,3.042 2.467,5.51 5.51,5.51 C -2.465,5.51 0,3.042 0,0"
             style="fill:#ffffff;fill-opacity:1;fill-rule:nonzero;stroke:none"
             id="path84"
             inkscape:connector-curvature="0" />
        </g>
        <g
           id="g86"
           transform="translate(247.2905,417.076)">
          <path
             d="m 0,0 c 0,-3.045 -2.465,-5.513 -5.509,-5.513 -3.043,0 -5.51,2.468 -5.51,5.513 0,3.041 2.467,5.507 5.51,5.507 C -2.465,5.507 0,3.041 0,0"
             style="fill:#ffffff;fill-opacity:1;fill-rule:nonzero;stroke:none"
             id="path88"
             inkscape:connector-curvature="0" />
        </g>
        <g
           id="g90"
           transform="translate(297.9824,387.7812)">
          <path
             d="m 0,0 c 0,-3.044 -2.465,-5.511 -5.508,-5.511 -3.042,0 -5.511,2.467 -5.511,5.511 0,3.041 2.469,5.508 5.511,5.508 C -2.465,5.508 0,3.041 0,0"
             style="fill:#ffffff;fill-opacity:1;fill-rule:nonzero;stroke:none"
             id="path92"
             inkscape:connector-curvature="0" />
        </g>
        <g
           id="g94"
           transform="translate(348.6958,416.9998)">
          <path
             d="m 0,0 c 0,-3.045 -2.465,-5.513 -5.508,-5.513 -3.041,0 -5.51,2.468 -5.51,5.513 0,3.041 2.469,5.505 5.51,5.505 C -2.465,5.505 0,3.041 0,0"
             style="fill:#ffffff;fill-opacity:1;fill-rule:nonzero;stroke:none"
             id="path96"
             inkscape:connector-curvature="0" />
        </g>
      </g>
    </g>
    <g
       aria-label="Ganister"
       style="font-variant:normal;font-weight:bold;font-stretch:normal;font-size:24.8615551px;font-family:'Titillium Web';-inkscape-font-specification:TitilliumWeb-Bold;text-align:center;writing-mode:lr-tb;text-anchor:middle;fill:#58595b;fill-opacity:1;fill-rule:nonzero;stroke:none;stroke-width:0.35277775"
       id="text100">
      <path
         d="m 9.4764201,96.13409 v -2.983386 h 4.9225879 v 8.776126 q -3.555202,0.57182 -5.7678807,0.57182 -3.9529873,0 -5.4446806,-2.11323 -1.4668318,-2.113236 -1.4668318,-6.712624 0,-4.599387 1.5414165,-6.638035 1.5414164,-2.038647 5.2457881,-2.038647 2.3121245,0 4.9971725,0.522092 l 0.895016,0.174031 -0.09945,2.660187 q -2.983387,-0.323201 -4.8977265,-0.323201 -1.8894782,0 -2.6601864,0.447508 -0.7707082,0.447508 -1.1436316,1.665725 -0.3480617,1.193354 -0.3480617,4.127018 0,2.908802 0.7209851,4.077295 0.7209851,1.168493 2.9833866,1.168493 l 2.0635095,-0.09945 V 96.13409 Z"
         style="stroke-width:0.35277775"
         id="path45" />
      <path
         d="m 26.862804,93.647935 v 5.171203 q 0.04972,0.596678 0.198893,0.845293 0.149169,0.223754 0.621539,0.3232 l -0.09945,2.511019 q -1.267939,0 -2.038647,-0.17403 -0.745847,-0.17403 -1.516555,-0.69613 -1.790032,0.87016 -3.654649,0.87016 -3.853541,0 -3.853541,-4.077297 0,-1.988924 1.069047,-2.809355 1.069047,-0.845293 3.281726,-0.994463 l 2.660186,-0.198892 v -0.770708 q 0,-0.770708 -0.348062,-1.044186 -0.348062,-0.298338 -1.11877,-0.298338 l -4.673972,0.198892 -0.09945,-2.312124 q 2.660186,-0.720985 5.046895,-0.720985 2.411571,0 3.455756,0.994462 1.069047,0.994462 1.069047,3.182279 z m -5.59385,3.281725 q -1.392247,0.124308 -1.392247,1.491693 0,1.367386 1.218217,1.367386 0.944739,0 2.063509,-0.298339 l 0.372923,-0.09945 v -2.660186 z"
         style="stroke-width:0.35277775"
         id="path47" />
      <path
         d="M 33.394402,102.20031 H 30.062954 V 89.769532 h 3.306587 v 0.696124 q 1.690585,-0.994462 3.107694,-0.994462 2.486156,0 3.430895,1.466831 0.944739,1.466832 0.944739,4.524803 v 6.737482 H 37.52142 v -6.638035 q 0,-1.59114 -0.372923,-2.336987 -0.372923,-0.770708 -1.491693,-0.770708 -1.019324,0 -1.964063,0.348062 l -0.298339,0.09945 z"
         style="stroke-width:0.35277775"
         id="path49" />
      <path
         d="M 43.80479,102.20031 V 89.769532 h 3.331449 v 12.430778 z m 0,-14.021917 v -3.381172 h 3.331449 v 3.381172 z"
         style="stroke-width:0.35277775"
         id="path51" />
      <path
         d="m 59.139707,92.877227 q -3.082833,-0.397785 -4.325911,-0.397785 -1.218216,0 -1.591139,0.223754 -0.348062,0.223754 -0.348062,0.720985 0,0.472369 0.47237,0.671262 0.497231,0.174031 2.486155,0.546954 2.013786,0.348062 2.859079,1.168493 0.845293,0.820431 0.845293,2.660186 0,4.027574 -4.997173,4.027574 -1.640862,0 -3.977848,-0.44751 l -0.79557,-0.14917 0.09945,-2.784493 q 3.082833,0.397785 4.276187,0.397785 1.218217,0 1.640863,-0.223754 0.447508,-0.248616 0.447508,-0.720985 0,-0.47237 -0.472369,-0.696124 -0.447508,-0.223754 -2.38671,-0.546954 -1.91434,-0.3232 -2.859079,-1.093908 -0.944739,-0.770709 -0.944739,-2.734772 0,-1.988924 1.342524,-2.983386 1.342524,-1.019324 3.455756,-1.019324 1.466832,0 4.002711,0.47237 l 0.820431,0.149169 z"
         style="stroke-width:0.35277775"
         id="path53" />
      <path
         d="m 68.852028,92.603749 h -3.057971 v 5.096619 q 0,0.745847 0.02486,1.069047 0.04972,0.298339 0.273477,0.522093 0.248615,0.223754 0.745846,0.223754 l 1.889479,-0.04972 0.149169,2.660191 q -1.665724,0.37292 -2.535879,0.37292 -2.23754,0 -3.057971,-0.99446 -0.820431,-1.01933 -0.820431,-3.729237 v -5.171204 h -1.466832 v -2.834217 h 1.466832 v -3.455756 h 3.331448 v 3.455756 h 3.057971 z"
         style="stroke-width:0.35277775"
         id="path55" />
      <path
         d="m 73.731883,97.40203 q 0.02486,1.143631 0.596678,1.665724 0.596677,0.497231 1.690585,0.497231 2.312125,0 4.127018,-0.149169 l 0.696124,-0.07459 0.04972,2.461289 q -2.859079,0.69613 -5.171203,0.69613 -2.809356,0 -4.077295,-1.49169 -1.26794,-1.491698 -1.26794,-4.848008 0,-6.687758 5.494404,-6.687758 5.419819,0 5.419819,5.618711 L 81.04118,97.40203 Z m 4.276188,-2.535879 q 0,-1.491693 -0.47237,-2.063509 -0.472369,-0.596677 -1.665724,-0.596677 -1.168493,0 -1.665724,0.621538 -0.47237,0.596678 -0.497231,2.038648 z"
         style="stroke-width:0.35277775"
         id="path57" />
      <path
         d="M 83.670681,102.20031 V 89.769532 h 3.306587 v 1.317663 q 2.08837,-1.243078 3.977849,-1.616001 v 3.356309 q -2.013786,0.422647 -3.455757,0.870155 l -0.497231,0.174031 v 8.328621 z"
         style="stroke-width:0.35277775"
         id="path59" />
    </g>
  </g>
</svg>
