<?xml version="1.0" encoding="UTF-8" standalone="no"?>
<!-- Generator: Adobe Illustrator 21.1.0, SVG Export Plug-In . SVG Version: 6.00 Build 0)  -->

<svg
   xmlns:dc="http://purl.org/dc/elements/1.1/"
   xmlns:cc="http://creativecommons.org/ns#"
   xmlns:rdf="http://www.w3.org/1999/02/22-rdf-syntax-ns#"
   xmlns:svg="http://www.w3.org/2000/svg"
   xmlns="http://www.w3.org/2000/svg"
   xmlns:sodipodi="http://sodipodi.sourceforge.net/DTD/sodipodi-0.dtd"
   xmlns:inkscape="http://www.inkscape.org/namespaces/inkscape"
   version="1.1"
   id="Icon_Set"
   x="0px"
   y="0px"
   viewBox="0 0 73.004211 65.007095"
   xml:space="preserve"
   sodipodi:docname="maintenance.svg"
   width="73.004211"
   height="65.007095"
   inkscape:version="0.92.3 (2405546, 2018-03-11)"><metadata
   id="metadata76"><rdf:RDF><cc:Work
       rdf:about=""><dc:format>image/svg+xml</dc:format><dc:type
         rdf:resource="http://purl.org/dc/dcmitype/StillImage" /><dc:title></dc:title></cc:Work></rdf:RDF></metadata><defs
   id="defs74" /><sodipodi:namedview
   pagecolor="#ffffff"
   bordercolor="#666666"
   borderopacity="1"
   objecttolerance="10"
   gridtolerance="10"
   guidetolerance="10"
   inkscape:pageopacity="0"
   inkscape:pageshadow="2"
   inkscape:window-width="1920"
   inkscape:window-height="1017"
   id="namedview72"
   showgrid="false"
   fit-margin-top="5"
   fit-margin-left="5"
   fit-margin-right="5"
   fit-margin-bottom="5"
   inkscape:zoom="10.429825"
   inkscape:cx="30.959931"
   inkscape:cy="30.309197"
   inkscape:window-x="-8"
   inkscape:window-y="-8"
   inkscape:window-maximized="1"
   inkscape:current-layer="g46" />
<style
   type="text/css"
   id="style2">
	.st0{fill:none;stroke:#37474F;stroke-linecap:round;stroke-linejoin:round;stroke-miterlimit:10;}
	.st1{fill:#FFB300;stroke:#37474F;stroke-linecap:round;stroke-linejoin:round;stroke-miterlimit:10;}
	.st2{fill:#90CAF9;stroke:#37474F;stroke-linecap:round;stroke-linejoin:round;stroke-miterlimit:10;}
	.st3{fill:#FFFFFF;stroke:#37474F;stroke-linecap:round;stroke-linejoin:round;stroke-miterlimit:10;}
	.st4{fill:#FF7043;stroke:#37474F;stroke-linecap:round;stroke-linejoin:round;stroke-miterlimit:10;}
	.st5{fill:#9CCC65;stroke:#37474F;stroke-linecap:round;stroke-linejoin:round;stroke-miterlimit:10;}
	.st6{fill:#37474F;}
	.st7{fill:#37474F;stroke:#37474F;stroke-linecap:round;stroke-linejoin:round;stroke-miterlimit:10;}
	.st8{fill:none;stroke:#37474F;stroke-linecap:square;stroke-linejoin:round;stroke-miterlimit:10;}
</style>
<g
   id="Maintenance"
   transform="translate(4.5071212,0.49997218)">
	<g
   id="g68">
		<g
   id="g8">
			<line
   class="st0"
   x1="51"
   y1="44"
   x2="56"
   y2="44"
   id="line4"
   style="fill:none;stroke:#37474f;stroke-linecap:round;stroke-linejoin:round;stroke-miterlimit:10" />
			<line
   class="st0"
   x1="58"
   y1="44"
   x2="59"
   y2="44"
   id="line6"
   style="fill:none;stroke:#37474f;stroke-linecap:round;stroke-linejoin:round;stroke-miterlimit:10" />
		</g>
		<g
   id="g14">
			<line
   class="st0"
   x1="9"
   y1="15"
   x2="4"
   y2="15"
   id="line10"
   style="fill:none;stroke:#37474f;stroke-linecap:round;stroke-linejoin:round;stroke-miterlimit:10" />
			<line
   class="st0"
   x1="2"
   y1="15"
   x2="1"
   y2="15"
   id="line12"
   style="fill:none;stroke:#37474f;stroke-linecap:round;stroke-linejoin:round;stroke-miterlimit:10" />
		</g>
		<g
   id="g28">
			<g
   id="g20">
				<path
   class="st2"
   d="m 61.8,19.8 c 1.2,-1.2 1.5,-2.9 0.9,-4.4 l -3,3 -2.1,-2.1 3,-3 c -1.5,-0.6 -3.2,-0.3 -4.4,0.9 -1,1 -1.4,2.5 -1,3.9 L 42.6,30.6 c -0.8,0.8 -0.8,2 0,2.8 v 0 c 0.8,0.8 2,0.8 2.8,0 L 58,20.8 c 1.3,0.4 2.8,0 3.8,-1 z"
   id="path16"
   style="fill:#00c0f3;fill-opacity:1;stroke:#37474f;stroke-linecap:round;stroke-linejoin:round;stroke-miterlimit:10"
   inkscape:connector-curvature="0" />
				<line
   class="st0"
   x1="45.400002"
   y1="30.6"
   x2="44"
   y2="32"
   id="line18"
   style="fill:none;stroke:#37474f;stroke-linecap:round;stroke-linejoin:round;stroke-miterlimit:10" />
			</g>
			<g
   id="g24">
				<polyline
   class="st0"
   points="50.4,20 46.3,15.9 45.6,14.5 44.2,13.1 42.1,15.3 43.6,16.7 45,17.4 48.9,21.4     "
   id="polyline22"
   style="fill:none;stroke:#37474f;stroke-linecap:round;stroke-linejoin:round;stroke-miterlimit:10" />
			</g>
			<path
   class="st0"
   d="m 57.4,24.2 -4.2,4.2 1.4,1.4 0.7,-0.7 4.1,4.1 c 0.8,0.8 2,0.8 2.8,0 0.8,-0.8 0.8,-2 0,-2.8 l -4.1,-4.1 0.7,-0.7 z"
   id="path26"
   inkscape:connector-curvature="0"
   style="fill:none;stroke:#37474f;stroke-linecap:round;stroke-linejoin:round;stroke-miterlimit:10" />
		</g>
		<g
   id="g66">
			<g
   id="g46">
				<path
   class="st0"
   d="m 36,20.5 c -0.1,0 -0.2,0 -0.3,0 C 34.6,15.6 30.2,12 25,12 c -5.2,0 -9.6,3.6 -10.7,8.5 -0.1,0 -0.2,0 -0.3,0 -1.4,0 -2.5,1.1 -2.5,2.5 0,1.4 1.1,2.5 2.5,2.5 0.1,0 0.2,0 0.3,0 1.1,4.9 5.5,8.5 10.7,8.5 5.2,0 9.6,-3.6 10.7,-8.5 0.1,0 0.2,0 0.3,0 1.4,0 2.5,-1.1 2.5,-2.5 0,-1.4 -1.1,-2.5 -2.5,-2.5 z"
   id="path30"
   inkscape:connector-curvature="0"
   style="fill:none;stroke:#37474f;stroke-linecap:round;stroke-linejoin:round;stroke-miterlimit:10" />
				<path
   class="st1"
   d="m 15,22 h -0.5 v -6.5 h 3 v 4 c 0,1.4 -1.1,2.5 -2.5,2.5 z"
   id="path32"
   style="fill:#faa619;fill-opacity:1;stroke:#37474f;stroke-linecap:round;stroke-linejoin:round;stroke-miterlimit:10"
   inkscape:connector-curvature="0" />
				<path
   class="st1"
   d="M 32,15.5 H 14.5 v 0 C 14.5,11.4 17.9,8 22,8 h 5.2 c 2.2,0 4.3,-0.5 6.3,-1.4 L 37,5 v 5.5 c 0,2.8 -2.2,5 -5,5 z"
   id="path34"
   style="fill:#faa619;fill-opacity:1;stroke:#37474f;stroke-linecap:round;stroke-linejoin:round;stroke-miterlimit:10"
   inkscape:connector-curvature="0" />
				<path
   class="st1"
   d="m 32.5,15.4 v 4.1 c 0,1.4 1.1,2.5 2.5,2.5 h 0.5 v -7.9 c -0.8,0.7 -1.8,1.2 -3,1.3 z"
   id="path36"
   style="fill:#faa619;fill-opacity:1;stroke:#37474f;stroke-linecap:round;stroke-linejoin:round;stroke-miterlimit:10"
   inkscape:connector-curvature="0" />
				<g
   id="g42">
					<circle
   class="st6"
   cx="28.5"
   cy="21.5"
   r="1"
   id="circle38"
   style="fill:#37474f" />
					<circle
   class="st6"
   cx="21.5"
   cy="21.5"
   r="1"
   id="circle40"
   style="fill:#37474f" />
				</g>
				<path
   class="st0"
   d="m 21.5,26.5 c 2,2 5.1,2 7.1,0"
   id="path44"
   inkscape:connector-curvature="0"
   style="fill:none;stroke:#37474f;stroke-linecap:round;stroke-linejoin:round;stroke-miterlimit:10" />
			</g>
			<g
   id="g64">
				<line
   class="st0"
   x1="15"
   y1="51"
   x2="7"
   y2="51"
   id="line48"
   style="fill:none;stroke:#37474f;stroke-linecap:round;stroke-linejoin:round;stroke-miterlimit:10" />
				<line
   class="st0"
   x1="43"
   y1="51"
   x2="35"
   y2="51"
   id="line50"
   style="fill:none;stroke:#37474f;stroke-linecap:round;stroke-linejoin:round;stroke-miterlimit:10" />
				<path
   class="st0"
   d="M 43,59 V 45.9 c 0,-3 -1.8,-5.7 -4.5,-6.9 L 29,35 v 0 c -1.9,2.9 -6.1,2.9 -8,0 v 0 l -9.5,4.1 C 8.8,40.2 7,42.9 7,45.9 V 59"
   id="path52"
   inkscape:connector-curvature="0"
   style="fill:none;stroke:#37474f;stroke-linecap:round;stroke-linejoin:round;stroke-miterlimit:10" />
				<path
   class="st0"
   d="m 25,34 c -1.4,0 -2.8,-0.3 -4,-0.8 v 1.8 0 c 1.9,2.9 6.1,2.9 8,0 v 0 -1.8 C 27.8,33.7 26.4,34 25,34 Z"
   id="path54"
   inkscape:connector-curvature="0"
   style="fill:none;stroke:#37474f;stroke-linecap:round;stroke-linejoin:round;stroke-miterlimit:10" />
				<polygon
   class="st0"
   points="15,48 18,48 18,36.3 15,37.6 "
   id="polygon56"
   style="fill:none;stroke:#37474f;stroke-linecap:round;stroke-linejoin:round;stroke-miterlimit:10" />
				<polygon
   class="st0"
   points="32,48 35,48 35,37.6 32,36.3 "
   id="polygon58"
   style="fill:none;stroke:#37474f;stroke-linecap:round;stroke-linejoin:round;stroke-miterlimit:10" />
				<polyline
   class="st0"
   points="15,59 15,48 35,48 35,59     "
   id="polyline60"
   style="fill:none;stroke:#37474f;stroke-linecap:round;stroke-linejoin:round;stroke-miterlimit:10" />
				<rect
   x="22"
   y="51"
   class="st0"
   width="6"
   height="3"
   id="rect62"
   style="fill:none;stroke:#37474f;stroke-linecap:round;stroke-linejoin:round;stroke-miterlimit:10" />
			</g>
		</g>
	</g>
</g>
</svg>