<?xml version="1.0" encoding="UTF-8" standalone="no"?>
<!-- Generator: Adobe Illustrator 21.1.0, SVG Export Plug-In . SVG Version: 6.00 Build 0)  -->

<svg
   xmlns:dc="http://purl.org/dc/elements/1.1/"
   xmlns:cc="http://creativecommons.org/ns#"
   xmlns:rdf="http://www.w3.org/1999/02/22-rdf-syntax-ns#"
   xmlns:svg="http://www.w3.org/2000/svg"
   xmlns="http://www.w3.org/2000/svg"
   xmlns:sodipodi="http://sodipodi.sourceforge.net/DTD/sodipodi-0.dtd"
   xmlns:inkscape="http://www.inkscape.org/namespaces/inkscape"
   version="1.1"
   id="Icon_Set"
   x="0px"
   y="0px"
   viewBox="0 0 74.000099 71.007118"
   xml:space="preserve"
   sodipodi:docname="team-network.svg"
   width="74.000099"
   height="71.007118"
   inkscape:version="0.92.3 (2405546, 2018-03-11)"><metadata
   id="metadata1724"><rdf:RDF><cc:Work
       rdf:about=""><dc:format>image/svg+xml</dc:format><dc:type
         rdf:resource="http://purl.org/dc/dcmitype/StillImage" /><dc:title></dc:title></cc:Work></rdf:RDF></metadata><defs
   id="defs1722" /><sodipodi:namedview
   pagecolor="#ffffff"
   bordercolor="#666666"
   borderopacity="1"
   objecttolerance="10"
   gridtolerance="10"
   guidetolerance="10"
   inkscape:pageopacity="0"
   inkscape:pageshadow="2"
   inkscape:window-width="1920"
   inkscape:window-height="1017"
   id="namedview1720"
   showgrid="false"
   fit-margin-top="5"
   fit-margin-left="5"
   fit-margin-bottom="5"
   fit-margin-right="5"
   inkscape:zoom="10.429825"
   inkscape:cx="28.744345"
   inkscape:cy="41.38972"
   inkscape:window-x="-8"
   inkscape:window-y="-8"
   inkscape:window-maximized="1"
   inkscape:current-layer="g1714" />
<style
   type="text/css"
   id="style1620">
	.st0{fill:none;stroke:#37474F;stroke-linecap:round;stroke-linejoin:round;stroke-miterlimit:10;}
	.st1{fill:#FFB300;stroke:#37474F;stroke-linecap:round;stroke-linejoin:round;stroke-miterlimit:10;}
	.st2{fill:#90CAF9;stroke:#37474F;stroke-linecap:round;stroke-linejoin:round;stroke-miterlimit:10;}
	.st3{fill:#FFFFFF;stroke:#37474F;stroke-linecap:round;stroke-linejoin:round;stroke-miterlimit:10;}
	.st4{fill:#FF7043;stroke:#37474F;stroke-linecap:round;stroke-linejoin:round;stroke-miterlimit:10;}
	.st5{fill:#9CCC65;stroke:#37474F;stroke-linecap:round;stroke-linejoin:round;stroke-miterlimit:10;}
	.st6{fill:#37474F;}
	.st7{fill:#37474F;stroke:#37474F;stroke-linecap:round;stroke-linejoin:round;stroke-miterlimit:10;}
	.st8{fill:none;stroke:#37474F;stroke-linecap:square;stroke-linejoin:round;stroke-miterlimit:10;}
</style>
<g
   id="Team_Network"
   transform="translate(5.00005,3.5)">
	<g
   id="g1716">
		<g
   id="g1626">
			<line
   class="st0"
   x1="15"
   y1="54.5"
   x2="10"
   y2="54.5"
   id="line1622"
   style="fill:none;stroke:#37474f;stroke-linecap:round;stroke-linejoin:round;stroke-miterlimit:10" />
			<line
   class="st0"
   x1="8"
   y1="54.5"
   x2="7"
   y2="54.5"
   id="line1624"
   style="fill:none;stroke:#37474f;stroke-linecap:round;stroke-linejoin:round;stroke-miterlimit:10" />
		</g>
		<g
   id="g1632">
			<line
   class="st0"
   x1="49"
   y1="54.5"
   x2="54"
   y2="54.5"
   id="line1628"
   style="fill:none;stroke:#37474f;stroke-linecap:round;stroke-linejoin:round;stroke-miterlimit:10" />
			<line
   class="st0"
   x1="56"
   y1="54.5"
   x2="57"
   y2="54.5"
   id="line1630"
   style="fill:none;stroke:#37474f;stroke-linecap:round;stroke-linejoin:round;stroke-miterlimit:10" />
		</g>
		<g
   id="g1656">
			<g
   id="g1638">
				<circle
   class="st0"
   cx="32"
   cy="41"
   r="6"
   id="circle1634"
   style="fill:none;stroke:#37474f;stroke-linecap:round;stroke-linejoin:round;stroke-miterlimit:10" />
				<path
   class="st1"
   d="m 36.2,37.5 0.4,-0.4 C 35.5,35.8 33.9,35 32,35 c -3.3,0 -6,2.7 -6,6 h 0.6 c 3.5,0 6.9,-1.2 9.6,-3.5 z"
   id="path1636"
   inkscape:connector-curvature="0"
   style="fill:#faa619;stroke:#37474f;stroke-linecap:round;stroke-linejoin:round;stroke-miterlimit:10;fill-opacity:1" />
			</g>
			<g
   id="g1654">
				<g
   id="g1648">
					<path
   class="st0"
   d="m 32,47 c -1.1,0 -2.1,-0.3 -3,-0.8 V 48 l 3,4.5 3,-4.5 V 46.2 C 34.1,46.7 33.1,47 32,47 Z"
   id="path1640"
   inkscape:connector-curvature="0"
   style="fill:none;stroke:#37474f;stroke-linecap:round;stroke-linejoin:round;stroke-miterlimit:10" />
					<path
   class="st0"
   d="M 42,62 V 54.6 C 42,52.7 40.9,51 39.2,50.1 L 35,48"
   id="path1642"
   inkscape:connector-curvature="0"
   style="fill:none;stroke:#37474f;stroke-linecap:round;stroke-linejoin:round;stroke-miterlimit:10" />
					<path
   class="st0"
   d="m 29,48 -4.2,2.1 C 23.1,51 22,52.7 22,54.6 V 62"
   id="path1644"
   inkscape:connector-curvature="0"
   style="fill:none;stroke:#37474f;stroke-linecap:round;stroke-linejoin:round;stroke-miterlimit:10" />
					<line
   class="st0"
   x1="32"
   y1="52.5"
   x2="32"
   y2="56.5"
   id="line1646"
   style="fill:none;stroke:#37474f;stroke-linecap:round;stroke-linejoin:round;stroke-miterlimit:10" />
				</g>
				<line
   class="st0"
   x1="26"
   y1="62"
   x2="26"
   y2="57"
   id="line1650"
   style="fill:none;stroke:#37474f;stroke-linecap:round;stroke-linejoin:round;stroke-miterlimit:10" />
				<line
   class="st0"
   x1="38"
   y1="57"
   x2="38"
   y2="62"
   id="line1652"
   style="fill:none;stroke:#37474f;stroke-linecap:round;stroke-linejoin:round;stroke-miterlimit:10" />
			</g>
		</g>
		<g
   id="g1680">
			<g
   id="g1662">
				<circle
   class="st0"
   cx="10.5"
   cy="23"
   r="6"
   id="circle1658"
   style="fill:none;stroke:#37474f;stroke-linecap:round;stroke-linejoin:round;stroke-miterlimit:10" />
				<path
   class="st1"
   d="m 14.7,19.5 0.4,-0.4 C 14,17.8 12.4,17 10.5,17 c -3.3,0 -6,2.7 -6,6 h 0.6 c 3.5,0 6.9,-1.2 9.6,-3.5 z"
   id="path1660"
   inkscape:connector-curvature="0"
   style="fill:#faa619;stroke:#37474f;stroke-linecap:round;stroke-linejoin:round;stroke-miterlimit:10;fill-opacity:1" />
			</g>
			<g
   id="g1678">
				<g
   id="g1672">
					<path
   class="st0"
   d="M 10.5,29 C 9.4,29 8.4,28.7 7.5,28.2 V 30 l 3,4.5 3,-4.5 v -1.8 c -0.9,0.5 -1.9,0.8 -3,0.8 z"
   id="path1664"
   inkscape:connector-curvature="0"
   style="fill:none;stroke:#37474f;stroke-linecap:round;stroke-linejoin:round;stroke-miterlimit:10" />
					<path
   class="st0"
   d="m 20.5,44 v -7.4 c 0,-1.9 -1.1,-3.6 -2.8,-4.5 L 13.5,30"
   id="path1666"
   inkscape:connector-curvature="0"
   style="fill:none;stroke:#37474f;stroke-linecap:round;stroke-linejoin:round;stroke-miterlimit:10" />
					<path
   class="st0"
   d="M 7.5,30 3.3,32.1 C 1.6,32.9 0.5,34.7 0.5,36.6 V 44"
   id="path1668"
   inkscape:connector-curvature="0"
   style="fill:none;stroke:#37474f;stroke-linecap:round;stroke-linejoin:round;stroke-miterlimit:10" />
					<line
   class="st0"
   x1="10.5"
   y1="34.5"
   x2="10.5"
   y2="38.5"
   id="line1670"
   style="fill:none;stroke:#37474f;stroke-linecap:round;stroke-linejoin:round;stroke-miterlimit:10" />
				</g>
				<line
   class="st0"
   x1="4.5"
   y1="44"
   x2="4.5"
   y2="39"
   id="line1674"
   style="fill:none;stroke:#37474f;stroke-linecap:round;stroke-linejoin:round;stroke-miterlimit:10" />
				<line
   class="st0"
   x1="16.5"
   y1="39"
   x2="16.5"
   y2="44"
   id="line1676"
   style="fill:none;stroke:#37474f;stroke-linecap:round;stroke-linejoin:round;stroke-miterlimit:10" />
			</g>
		</g>
		<g
   id="g1704">
			<g
   id="g1686">
				<circle
   class="st0"
   cx="53.5"
   cy="23"
   r="6"
   id="circle1682"
   style="fill:none;stroke:#37474f;stroke-linecap:round;stroke-linejoin:round;stroke-miterlimit:10" />
				<path
   class="st1"
   d="m 57.7,19.5 0.4,-0.4 C 57,17.8 55.4,17 53.5,17 c -3.3,0 -6,2.7 -6,6 h 0.6 c 3.5,0 6.9,-1.2 9.6,-3.5 z"
   id="path1684"
   inkscape:connector-curvature="0"
   style="fill:#faa619;stroke:#37474f;stroke-linecap:round;stroke-linejoin:round;stroke-miterlimit:10;fill-opacity:1" />
			</g>
			<g
   id="g1702">
				<g
   id="g1696">
					<path
   class="st0"
   d="m 53.5,29 c -1.1,0 -2.1,-0.3 -3,-0.8 V 30 l 3,4.5 3,-4.5 v -1.8 c -0.9,0.5 -1.9,0.8 -3,0.8 z"
   id="path1688"
   inkscape:connector-curvature="0"
   style="fill:none;stroke:#37474f;stroke-linecap:round;stroke-linejoin:round;stroke-miterlimit:10" />
					<path
   class="st0"
   d="m 63.5,44 v -7.4 c 0,-1.9 -1.1,-3.6 -2.8,-4.5 L 56.5,30"
   id="path1690"
   inkscape:connector-curvature="0"
   style="fill:none;stroke:#37474f;stroke-linecap:round;stroke-linejoin:round;stroke-miterlimit:10" />
					<path
   class="st0"
   d="m 50.5,30 -4.2,2.1 c -1.7,0.8 -2.8,2.6 -2.8,4.5 V 44"
   id="path1692"
   inkscape:connector-curvature="0"
   style="fill:none;stroke:#37474f;stroke-linecap:round;stroke-linejoin:round;stroke-miterlimit:10" />
					<line
   class="st0"
   x1="53.5"
   y1="34.5"
   x2="53.5"
   y2="38.5"
   id="line1694"
   style="fill:none;stroke:#37474f;stroke-linecap:round;stroke-linejoin:round;stroke-miterlimit:10" />
				</g>
				<line
   class="st0"
   x1="47.5"
   y1="44"
   x2="47.5"
   y2="39"
   id="line1698"
   style="fill:none;stroke:#37474f;stroke-linecap:round;stroke-linejoin:round;stroke-miterlimit:10" />
				<line
   class="st0"
   x1="59.5"
   y1="39"
   x2="59.5"
   y2="44"
   id="line1700"
   style="fill:none;stroke:#37474f;stroke-linecap:round;stroke-linejoin:round;stroke-miterlimit:10" />
			</g>
		</g>
		<g
   id="g1714">
			<polygon
   class="st0"
   points="40,20 24,20 32,6 "
   id="polygon1706"
   style="fill:none;stroke:#37474f;stroke-linecap:round;stroke-linejoin:round;stroke-miterlimit:10" />
			<circle
   class="st2"
   cx="24"
   cy="20"
   r="4"
   id="circle1708"
   style="fill:#00c0f3;stroke:#37474f;stroke-linecap:round;stroke-linejoin:round;stroke-miterlimit:10;fill-opacity:1" />
			<circle
   class="st2"
   cx="40"
   cy="20"
   r="4"
   id="circle1710"
   style="fill:#00c0f3;stroke:#37474f;stroke-linecap:round;stroke-linejoin:round;stroke-miterlimit:10;fill-opacity:1" />
			<circle
   class="st2"
   cx="32"
   cy="6"
   r="4"
   id="circle1712"
   style="fill:#00c0f3;stroke:#37474f;stroke-linecap:round;stroke-linejoin:round;stroke-miterlimit:10;fill-opacity:1" />
		</g>
	</g>
</g>
</svg>