<?xml version="1.0" encoding="UTF-8" standalone="no"?>
<svg
   xmlns:dc="http://purl.org/dc/elements/1.1/"
   xmlns:cc="http://creativecommons.org/ns#"
   xmlns:rdf="http://www.w3.org/1999/02/22-rdf-syntax-ns#"
   xmlns:svg="http://www.w3.org/2000/svg"
   xmlns="http://www.w3.org/2000/svg"
   xmlns:sodipodi="http://sodipodi.sourceforge.net/DTD/sodipodi-0.dtd"
   xmlns:inkscape="http://www.inkscape.org/namespaces/inkscape"
   width="2550.3477"
   height="501.72614"
   version="1.1"
   id="svg44"
   sodipodi:docname="GconfigLogo2.svg"
   inkscape:version="0.92.3 (2405546, 2018-03-11)">
  <defs
     id="defs6482" />
  <metadata
     id="metadata48">
    <rdf:RDF>
      <cc:Work
         rdf:about="">
        <dc:format>image/svg+xml</dc:format>
        <dc:type
           rdf:resource="http://purl.org/dc/dcmitype/StillImage" />
        <dc:title></dc:title>
      </cc:Work>
    </rdf:RDF>
  </metadata>
  <sodipodi:namedview
     pagecolor="#ffffff"
     bordercolor="#666666"
     borderopacity="1"
     objecttolerance="10"
     gridtolerance="10"
     guidetolerance="10"
     inkscape:pageopacity="0"
     inkscape:pageshadow="2"
     inkscape:window-width="1920"
     inkscape:window-height="1017"
     id="namedview46"
     showgrid="false"
     inkscape:zoom="0.3535534"
     inkscape:cx="1050.6895"
     inkscape:cy="95.686444"
     inkscape:window-x="-8"
     inkscape:window-y="-8"
     inkscape:window-maximized="1"
     inkscape:current-layer="use42"
     fit-margin-left="10"
     fit-margin-top="10"
     fit-margin-bottom="10"
     fit-margin-right="10" />
  <g
     id="use42"
     transform="translate(271.84888,533.26287)">
    <g
       transform="rotate(-90,-165.086,-13.027127)"
       id="use7131"
       style="fill:#bed730;fill-opacity:0.78431373;stroke:#000000;stroke-width:2;stroke-miterlimit:4;stroke-dasharray:none;stroke-opacity:1">
      <ref
         default="40"
         param="x"
         id="elementWidth" />
      <ref
         default="10"
         param="y"
         id="holeRadius" />
      <path
         inkscape:connector-curvature="0"
         id="path7175"
         style="fill:#bed730;fill-opacity:0.78431373;stroke:#000000;stroke-width:2;stroke-miterlimit:4;stroke-dasharray:none;stroke-opacity:1"
         d="m 4.4909383,-108.79001 a 40.000001,40.000001 0 0 0 0,80.000002 H 204.49093 a 40.000001,40.000001 0 0 0 0,-80.000002 H 4.4909383 m 13.9999997,40.000002 a 14,14 0 0 1 -13.9999997,14 14,14 0 0 1 -14,-14 14,14 0 0 1 14,-14 14,14 0 0 1 13.9999997,14 z m 199.999992,0 a 14,14 0 0 1 -14,14 14,14 0 0 1 -14,-14 14,14 0 0 1 14,-14 14,14 0 0 1 14,14 z" />
    </g>
    <g
       transform="rotate(30,419.41718,-44.92652)"
       id="use7131-0"
       style="fill:#faa71a;fill-opacity:0.78431373;stroke:#000000;stroke-width:2;stroke-miterlimit:4;stroke-dasharray:none;stroke-opacity:1">
      <ref
         default="40"
         param="x"
         id="elementWidth" />
      <ref
         default="10"
         param="y"
         id="holeRadius" />
      <path
         inkscape:connector-curvature="0"
         id="path7175-1"
         style="fill:#faa71a;fill-opacity:0.78431373;stroke:#000000;stroke-width:2;stroke-miterlimit:4;stroke-dasharray:none;stroke-opacity:1"
         d="m -203.77641,115.96476 a 40.000001,40.000001 0 0 0 0,80 H -3.7764187 a 40.000001,40.000001 0 0 0 0,-80 H -203.77641 m 14,40 a 14,14 0 0 1 -14,14 14,14 0 0 1 -14,-14 14,14 0 0 1 14,-14 14,14 0 0 1 14,14 z m 199.999991,0 a 14,14 0 0 1 -13.9999997,14 14,14 0 0 1 -14.0000003,-14 14,14 0 0 1 14.0000003,-14 14,14 0 0 1 13.9999997,14 z" />
    </g>
    <g
       transform="rotate(150,80.336233,-109.42507)"
       id="use7131-2"
       style="fill:#d70b8c;fill-opacity:0.78431373;stroke:#000000;stroke-width:2;stroke-miterlimit:4;stroke-dasharray:none;stroke-opacity:1">
      <ref
         default="40"
         param="x"
         id="elementWidth" />
      <ref
         default="10"
         param="y"
         id="holeRadius" />
      <path
         inkscape:connector-curvature="0"
         id="path7175-9"
         style="fill:#d70b8c;fill-opacity:0.78431373;stroke:#000000;stroke-width:2;stroke-miterlimit:4;stroke-dasharray:none;stroke-opacity:1"
         d="m 4.4909383,-108.79001 a 40.000001,40.000001 0 0 0 0,80.000002 H 204.49093 a 40.000001,40.000001 0 0 0 0,-80.000002 H 4.4909383 m 13.9999997,40.000002 a 14,14 0 0 1 -13.9999997,14 14,14 0 0 1 -14,-14 14,14 0 0 1 14,-14 14,14 0 0 1 13.9999997,14 z m 199.999992,0 a 14,14 0 0 1 -14,14 14,14 0 0 1 -14,-14 14,14 0 0 1 14,-14 14,14 0 0 1 14,14 z" />
    </g>
    <g
       transform="rotate(30,377.29775,-272.65226)"
       id="use7131-7"
       style="fill:#5c2d91;fill-opacity:0.78431373;stroke:#000000;stroke-width:2;stroke-miterlimit:4;stroke-dasharray:none;stroke-opacity:1">
      <ref
         default="40"
         param="x"
         id="elementWidth" />
      <ref
         default="10"
         param="y"
         id="holeRadius" />
      <path
         inkscape:connector-curvature="0"
         id="path7175-8"
         style="fill:#5c2d91;fill-opacity:0.78431373;stroke:#000000;stroke-width:2;stroke-miterlimit:4;stroke-dasharray:none;stroke-opacity:1"
         d="m 4.4909383,-108.79001 a 40.000001,40.000001 0 0 0 0,80.000002 H 204.49093 a 40.000001,40.000001 0 0 0 0,-80.000002 H 4.4909383 m 13.9999997,40.000002 m 199.999992,0 a 14,14 0 0 1 -14,14 14,14 0 0 1 -14,-14 14,14 0 0 1 14,-14 14,14 0 0 1 14,14 z" />
    </g>
    <g
       transform="rotate(-30,-693.05839,194.72089)"
       id="use7131-3"
       style="fill:#33bcad;fill-opacity:0.78431373;stroke:#000000;stroke-width:2;stroke-miterlimit:4;stroke-dasharray:none;stroke-opacity:1">
      <ref
         default="40"
         param="x"
         id="elementWidth" />
      <ref
         default="10"
         param="y"
         id="holeRadius" />
      <path
         inkscape:connector-curvature="0"
         id="path7175-15"
         style="fill:#33bcad;fill-opacity:0.78431373;stroke:#000000;stroke-width:2;stroke-miterlimit:4;stroke-dasharray:none;stroke-opacity:1"
         d="m 4.4909383,-108.79001 a 40.000001,40.000001 0 0 0 0,80.000002 H 204.49093 a 40.000001,40.000001 0 0 0 0,-80.000002 H 4.4909383 m 13.9999997,40.000002 a 14,14 0 0 1 -13.9999997,14 14,14 0 0 1 -14,-14 14,14 0 0 1 14,-14 14,14 0 0 1 13.9999997,14 z m 199.999992,0 a 14,14 0 0 1 -14,14 14,14 0 0 1 -14,-14 14,14 0 0 1 14,-14 14,14 0 0 1 14,14 z" />
    </g>
    <g
       transform="rotate(30,749.81951,-372.37818)"
       id="use7131-6"
       style="fill:#00c0f3;fill-opacity:0.78431373;stroke:#000000;stroke-width:2;stroke-miterlimit:4;stroke-dasharray:none;stroke-opacity:1">
      <ref
         default="40"
         param="x"
         id="elementWidth" />
      <ref
         default="10"
         param="y"
         id="holeRadius" />
      <path
         inkscape:connector-curvature="0"
         id="path7175-2"
         style="fill:#00c0f3;fill-opacity:0.78431373;stroke:#000000;stroke-width:2;stroke-miterlimit:4;stroke-dasharray:none;stroke-opacity:1"
         d="m 4.4909383,-108.79001 a 40.000001,40.000001 0 0 0 0,80.000002 H 204.49093 a 40.000001,40.000001 0 0 0 0,-80.000002 H 4.4909383 m 13.9999997,40.000002 a 14,14 0 0 1 -13.9999997,14 14,14 0 0 1 -14,-14 14,14 0 0 1 14,-14 14,14 0 0 1 13.9999997,14 z" />
    </g>
    <g
       transform="matrix(0.55805828,0,0,0.55805828,246.6268,-229.50566)"
       id="use7131-20"
       style="fill:none;fill-opacity:0.78431373;stroke:#000000;stroke-width:8.95963764;stroke-miterlimit:4;stroke-dasharray:none;stroke-opacity:1">
      <ref
         default="40"
         param="x"
         id="elementWidth" />
      <ref
         default="10"
         param="y"
         id="holeRadius" />
      <path
         inkscape:connector-curvature="0"
         id="path7175-28"
         style="fill:none;fill-opacity:0.78431373;stroke:#000000;stroke-width:8.95963764;stroke-miterlimit:4;stroke-dasharray:none;stroke-opacity:1"
         d="m 4.4909383,-108.79001 a 40.000001,40.000001 0 0 0 0,80.000002 H 204.49093 a 40.000001,40.000001 0 0 0 0,-80.000002 H 4.4909383 m 13.9999997,40.000002 a 14,14 0 0 1 -13.9999997,14 14,14 0 0 1 -14,-14 14,14 0 0 1 14,-14 14,14 0 0 1 13.9999997,14 z m 199.999992,0 a 14,14 0 0 1 -14,14 14,14 0 0 1 -14,-14 14,14 0 0 1 14,-14 14,14 0 0 1 14,14 z" />
    </g>
    <g
       aria-label="CONFIG"
       style="font-style:normal;font-variant:normal;font-weight:normal;font-stretch:normal;font-size:60.80403137px;line-height:1.25;font-family:sans-serif;-inkscape-font-specification:sans-serif;letter-spacing:0px;word-spacing:0px;fill:#000000;fill-opacity:1;stroke:none;stroke-width:10;stroke-miterlimit:4;stroke-dasharray:none"
       id="text2554">
      <path
         d="m 600.50489,-442.57986 q 48.93814,0 88.54389,25.49336 20.25811,12.9743 30.27336,27.54193 6.37334,9.33239 6.37334,15.93335 0,7.28381 -6.37334,13.65715 -6.14572,5.9181 -14.11239,5.9181 -7.0562,0 -11.83621,-5.00762 -0.68285,-0.68286 -5.9181,-7.51144 -31.18383,-40.06099 -86.26769,-40.06099 -51.21433,0 -83.30864,42.79242 -27.99717,37.32956 -27.99717,91.73056 0,46.88956 21.85145,81.94293 33.00479,52.80766 92.86865,52.80766 59.181,0 91.50294,-49.16575 5.23524,-8.1943 15.25048,-8.1943 8.1943,0 15.02287,5.9181 6.82858,5.9181 6.82858,14.34002 0,9.78762 -12.29144,25.03811 -39.83336,48.4829 -116.31343,48.4829 -55.99434,0 -95.60008,-30.95622 -60.54672,-47.57242 -60.54672,-140.21345 0,-69.42387 38.69527,-116.99629 43.70289,-53.49053 113.35438,-53.49053 z"
         style="font-style:normal;font-variant:normal;font-weight:normal;font-stretch:normal;font-size:466.16421509px;font-family:'UD Digi Kyokasho NP-R';-inkscape-font-specification:'UD Digi Kyokasho NP-R';fill:none;stroke:#000000;stroke-width:10;stroke-miterlimit:4;stroke-dasharray:none;stroke-opacity:1"
         id="path844" />
      <path
         d="m 942.16137,-442.57986 q 45.06862,0 82.62583,26.63146 32.5495,23.21716 50.7591,62.82291 17.299,37.32955 17.299,81.26007 0,48.93814 -20.941,89.22674 -17.0714,33.23241 -45.5238,54.17338 -37.32956,27.54193 -85.58484,27.54193 -65.78196,0 -109.25724,-50.75909 -41.65432,-48.71052 -41.65432,-120.18296 0,-66.92006 37.32956,-114.49248 44.38575,-56.22196 114.94771,-56.22196 z m -1.13809,35.96384 q -45.06861,0 -76.48007,37.32956 -32.77717,38.92289 -32.77717,97.87628 0,34.59812 12.29144,63.50577 9.78763,23.21716 25.94859,39.83336 30.27336,30.7286 71.92769,30.7286 41.19908,0 71.47244,-31.63907 37.5572,-39.15051 37.5572,-102.65628 0,-58.49815 -32.322,-97.19342 -31.63903,-37.7848 -77.61812,-37.7848 z"
         style="font-style:normal;font-variant:normal;font-weight:normal;font-stretch:normal;font-size:466.16421509px;font-family:'UD Digi Kyokasho NP-R';-inkscape-font-specification:'UD Digi Kyokasho NP-R';fill:none;stroke:#000000;stroke-width:10;stroke-miterlimit:4;stroke-dasharray:none;stroke-opacity:1"
         id="path846" />
      <path
         d="m 1388.0675,-175.35486 v -245.82879 q 0,-7.28381 5.0076,-11.8362 5.9181,-5.23524 14.5676,-5.23524 11.1534,0 16.8439,8.19429 2.7314,3.86953 2.7314,8.87715 v 281.56501 q 0,33.46003 -23.6724,33.46003 -15.9334,0 -27.0867,-17.52668 l -174.8116,-272.23262 v 272.68786 q 0,7.73905 -5.2352,12.51905 -6.1457,5.23525 -14.7953,5.23525 -10.4705,0 -16.1609,-7.73906 -2.9591,-4.09714 -2.9591,-10.01524 v -279.28882 q 0,-25.03812 19.8029,-33.46003 7.0562,-2.95905 16.6162,-2.95905 18.6648,0 29.3629,16.38859 z"
         style="font-style:normal;font-variant:normal;font-weight:normal;font-stretch:normal;font-size:466.16421509px;font-family:'UD Digi Kyokasho NP-R';-inkscape-font-specification:'UD Digi Kyokasho NP-R';fill:none;stroke:#000000;stroke-width:10;stroke-miterlimit:4;stroke-dasharray:none;stroke-opacity:1"
         id="path848" />
      <path
         d="m 1552.6362,-261.62256 v 137.93727 q 0,7.73905 -5.2352,12.51906 -6.3734,5.69048 -15.9334,5.69048 -11.8362,0 -17.5267,-8.1943 -2.7314,-4.09714 -2.7314,-10.01524 v -272.68786 q 0,-38.69527 39.1505,-38.69527 h 179.364 q 5.9181,0 10.2429,3.64191 5.6904,5.00762 5.6904,14.34001 0,17.98192 -15.9333,17.98192 h -168.2106 q -8.8772,0 -8.8772,8.87715 v 94.00675 h 156.6021 q 4.3247,0 7.739,2.04857 7.7391,4.32477 7.7391,15.25049 0,17.29906 -15.4781,17.29906 z"
         style="font-style:normal;font-variant:normal;font-weight:normal;font-stretch:normal;font-size:466.16421509px;font-family:'UD Digi Kyokasho NP-R';-inkscape-font-specification:'UD Digi Kyokasho NP-R';fill:none;stroke:#000000;stroke-width:10;stroke-miterlimit:4;stroke-dasharray:none;stroke-opacity:1"
         id="path850" />
      <path
         d="m 1831.0146,-401.83601 h -36.4191 q -14.7953,0 -14.7953,-16.84383 0,-16.38858 14.7953,-16.38858 h 112.8991 q 14.7953,0 14.7953,16.38858 0,8.87716 -5.6905,13.65716 -3.6419,3.18667 -9.1048,3.18667 h -36.419 v 260.1688 h 36.419 q 14.7953,0 14.7953,16.38858 0,8.87715 -5.6905,13.42954 -3.6419,3.18667 -9.1048,3.18667 h -112.8991 q -14.7953,0 -14.7953,-16.61621 0,-16.38858 14.7953,-16.38858 h 36.4191 z"
         style="font-style:normal;font-variant:normal;font-weight:normal;font-stretch:normal;font-size:466.16421509px;font-family:'UD Digi Kyokasho NP-R';-inkscape-font-specification:'UD Digi Kyokasho NP-R';fill:none;stroke:#000000;stroke-width:10;stroke-miterlimit:4;stroke-dasharray:none;stroke-opacity:1"
         id="path852" />
      <path
         d="m 2232.5348,-166.93295 q -19.8028,35.5086 -54.1733,52.80767 -25.9486,13.20191 -55.0839,13.20191 -53.7181,0 -92.8686,-31.86669 -58.043,-47.11719 -58.043,-138.62012 0,-58.27053 27.542,-101.97343 24.8105,-39.37813 65.0991,-56.90481 27.9971,-12.29144 59.4086,-12.29144 49.621,0 89.2267,25.49336 20.0305,12.9743 30.2734,27.54193 6.3733,9.10477 6.3733,15.93335 0,7.28381 -6.3733,13.65715 -6.1457,5.9181 -14.1124,5.9181 -7.2838,0 -12.0638,-5.00762 -0.4552,-0.68286 -5.9181,-7.51144 -30.9562,-40.06099 -86.2677,-40.06099 -51.2143,0 -83.081,42.79242 -28.2248,37.55718 -28.2248,92.64104 0,48.25528 21.8514,82.8534 14.7953,23.90002 38.0124,37.32956 23.2172,13.65715 50.5315,13.65715 44.6134,0 76.0248,-36.19146 18.8924,-21.62383 28.6801,-54.85624 h -79.6668 q -6.6009,0 -10.9257,-4.09714 -5.4628,-5.46286 -5.4628,-13.88478 0,-10.92572 8.6495,-15.25049 3.4143,-1.82095 7.739,-1.82095 h 92.6411 q 26.1762,0 26.1762,26.17621 v 115.8582 q 0,4.32477 -2.0486,7.73905 -4.5524,8.1943 -16.161,8.1943 -17.7543,0 -17.7543,-15.93335 z"
         style="font-style:normal;font-variant:normal;font-weight:normal;font-stretch:normal;font-size:466.16421509px;font-family:'UD Digi Kyokasho NP-R';-inkscape-font-specification:'UD Digi Kyokasho NP-R';fill:none;stroke:#000000;stroke-width:10;stroke-miterlimit:4;stroke-dasharray:none;stroke-opacity:1"
         id="path854" />
    </g>
  </g>
  <g
     inkscape:groupmode="layer"
     id="layer1"
     inkscape:label="Layer 1"
     style="display:inline"
     transform="translate(1.000006,1.0019744)">
    <path
       inkscape:connector-curvature="0"
       id="path7175-28-4"
       style="fill:none;fill-opacity:0.78431373;stroke:#000000;stroke-width:5;stroke-miterlimit:4;stroke-dasharray:none;stroke-opacity:1"
       d="m 984.32725,158.18963 c 0,4.3149 -3.49792,7.81282 -7.81282,7.81282 -4.31489,-1e-5 -7.81281,-3.49792 -7.81281,-7.81282 0,-4.31489 3.49792,-7.81281 7.81281,-7.81281 4.3149,0 7.81282,3.49791 7.81282,7.81281 z"
       sodipodi:nodetypes="sssss" />
    <path
       inkscape:connector-curvature="0"
       id="path7175-28-4-5"
       style="display:inline;fill:none;fill-opacity:0.78431373;stroke:#000000;stroke-width:5;stroke-miterlimit:4;stroke-dasharray:none;stroke-opacity:1"
       d="m 989.277,358.30084 c 0,4.3149 -3.49792,7.81282 -7.81282,7.81282 -4.31489,-10e-6 -7.81281,-3.49792 -7.81281,-7.81282 0,-4.31489 3.49792,-7.81281 7.81281,-7.81281 4.3149,0 7.81282,3.49791 7.81282,7.81281 z"
       sodipodi:nodetypes="sssss" />
    <path
       inkscape:connector-curvature="0"
       id="path7175-28-4-52"
       style="display:inline;fill:none;fill-opacity:0.78431373;stroke:#000000;stroke-width:5;stroke-miterlimit:4;stroke-dasharray:none;stroke-opacity:1"
       d="m 1460.9172,405.67699 c 0,4.3149 -3.4979,7.81282 -7.8128,7.81282 -4.3149,-10e-6 -7.8128,-3.49792 -7.8128,-7.81282 0,-4.31489 3.4979,-7.81281 7.8128,-7.81281 4.3149,0 7.8128,3.49791 7.8128,7.81281 z"
       sodipodi:nodetypes="sssss" />
    <path
       inkscape:connector-curvature="0"
       id="path7175-28-4-6"
       style="display:inline;fill:none;fill-opacity:0.78431373;stroke:#000000;stroke-width:5;stroke-miterlimit:4;stroke-dasharray:none;stroke-opacity:1"
       d="m 1686.2772,113.5169 c 0,4.3149 -3.498,7.81282 -7.8129,7.81282 -4.3149,-10e-6 -7.8128,-3.49792 -7.8128,-7.81282 0,-4.31489 3.4979,-7.81281 7.8128,-7.81281 4.3149,0 7.8129,3.49791 7.8129,7.81281 z"
       sodipodi:nodetypes="sssss" />
    <path
       inkscape:connector-curvature="0"
       id="path7175-28-4-1"
       style="display:inline;fill:none;fill-opacity:0.78431373;stroke:#000000;stroke-width:5;stroke-miterlimit:4;stroke-dasharray:none;stroke-opacity:1"
       d="m 1809.8128,403.2222 c 0,4.3149 -3.498,7.81282 -7.8129,7.81282 -4.3148,-10e-6 -7.8128,-3.49792 -7.8128,-7.81282 0,-4.31489 3.498,-7.81281 7.8128,-7.81281 4.3149,0 7.8129,3.49791 7.8129,7.81281 z"
       sodipodi:nodetypes="sssss" />
    <path
       inkscape:connector-curvature="0"
       id="path7175-28-4-2"
       style="display:inline;fill:none;fill-opacity:0.78431373;stroke:#000000;stroke-width:5;stroke-miterlimit:4;stroke-dasharray:none;stroke-opacity:1"
       d="m 1981.8128,253.7222 c 0,4.3149 -3.498,7.81282 -7.8129,7.81282 -4.3148,-10e-6 -7.8128,-3.49792 -7.8128,-7.81282 0,-4.31489 3.498,-7.81281 7.8128,-7.81281 4.3149,0 7.8129,3.49791 7.8129,7.81281 z"
       sodipodi:nodetypes="sssss" />
    <path
       inkscape:connector-curvature="0"
       id="path7175-28-4-4"
       style="display:inline;fill:none;fill-opacity:0.78431373;stroke:#000000;stroke-width:5;stroke-miterlimit:4;stroke-dasharray:none;stroke-opacity:1"
       d="m 2002.8128,114.7222 c 0,4.3149 -3.498,7.81282 -7.8129,7.81282 -4.3148,-1e-5 -7.8128,-3.49792 -7.8128,-7.81282 0,-4.31489 3.498,-7.81281 7.8128,-7.81281 4.3149,0 7.8129,3.49791 7.8129,7.81281 z"
       sodipodi:nodetypes="sssss" />
    <path
       inkscape:connector-curvature="0"
       id="path7175-28-4-58"
       style="display:inline;fill:none;fill-opacity:0.78431373;stroke:#000000;stroke-width:5;stroke-miterlimit:4;stroke-dasharray:none;stroke-opacity:1"
       d="m 2077.3128,113.2222 c 0,4.3149 -3.498,7.81282 -7.8129,7.81282 -4.3148,-1e-5 -7.8128,-3.49792 -7.8128,-7.81282 0,-4.31489 3.498,-7.81281 7.8128,-7.81281 4.3149,0 7.8129,3.49791 7.8129,7.81281 z"
       sodipodi:nodetypes="sssss" />
    <path
       inkscape:connector-curvature="0"
       id="path7175-28-4-9"
       style="display:inline;fill:none;fill-opacity:0.78431373;stroke:#000000;stroke-width:5;stroke-miterlimit:4;stroke-dasharray:none;stroke-opacity:1"
       d="m 2181.3128,113.2222 c 0,4.3149 -3.498,7.81282 -7.8129,7.81282 -4.3149,-1e-5 -7.8128,-3.49792 -7.8128,-7.81282 0,-4.31489 3.4979,-7.81281 7.8128,-7.81281 4.3149,0 7.8129,3.49791 7.8129,7.81281 z"
       sodipodi:nodetypes="sssss" />
    <path
       inkscape:connector-curvature="0"
       id="path7175-28-4-8"
       style="display:inline;fill:none;fill-opacity:0.78431373;stroke:#000000;stroke-width:5;stroke-miterlimit:4;stroke-dasharray:none;stroke-opacity:1"
       d="m 2181.6358,407.26799 c 0,4.3149 -3.498,7.81282 -7.8129,7.81282 -4.3149,-10e-6 -7.8128,-3.49792 -7.8128,-7.81282 0,-4.31489 3.4979,-7.81281 7.8128,-7.81281 4.3149,0 7.8129,3.49791 7.8129,7.81281 z"
       sodipodi:nodetypes="sssss" />
    <path
       inkscape:connector-curvature="0"
       id="path7175-28-4-7"
       style="display:inline;fill:none;fill-opacity:0.78431373;stroke:#000000;stroke-width:5;stroke-miterlimit:4;stroke-dasharray:none;stroke-opacity:1"
       d="m 2076.6878,407.3472 c 0,4.3149 -3.498,7.81282 -7.8129,7.81282 -4.3148,-10e-6 -7.8128,-3.49792 -7.8128,-7.81282 0,-4.31489 3.498,-7.81281 7.8128,-7.81281 4.3149,0 7.8129,3.49791 7.8129,7.81281 z"
       sodipodi:nodetypes="sssss" />
    <path
       inkscape:connector-curvature="0"
       id="path7175-28-4-0"
       style="display:inline;fill:none;fill-opacity:0.78431373;stroke:#000000;stroke-width:5;stroke-miterlimit:4;stroke-dasharray:none;stroke-opacity:1"
       d="m 2507.0816,155.18442 c 0,4.3149 -3.4979,7.81282 -7.8128,7.81282 -4.3149,-1e-5 -7.8128,-3.49792 -7.8128,-7.81282 0,-4.31489 3.4979,-7.81281 7.8128,-7.81281 4.3149,0 7.8128,3.49791 7.8128,7.81281 z"
       sodipodi:nodetypes="sssss" />
    <path
       inkscape:connector-curvature="0"
       id="path7175-28-4-3"
       style="display:inline;fill:none;fill-opacity:0.78431373;stroke:#000000;stroke-width:5;stroke-miterlimit:4;stroke-dasharray:none;stroke-opacity:1"
       d="m 2431.7748,285.99917 c 0,4.3149 -3.4979,7.81282 -7.8128,7.81282 -4.3149,-10e-6 -7.8128,-3.49792 -7.8128,-7.81282 0,-4.31489 3.4979,-7.81281 7.8128,-7.81281 4.3149,0 7.8128,3.49791 7.8128,7.81281 z"
       sodipodi:nodetypes="sssss" />
    <path
       inkscape:connector-curvature="0"
       id="path7175-28-4-41"
       style="display:inline;fill:none;fill-opacity:0.78431373;stroke:#000000;stroke-width:5;stroke-miterlimit:4;stroke-dasharray:none;stroke-opacity:1"
       d="m 2529.002,406.73765 c 0,4.3149 -3.4979,7.81282 -7.8128,7.81282 -4.3149,-1e-5 -7.8128,-3.49792 -7.8128,-7.81282 0,-4.31489 3.4979,-7.81281 7.8128,-7.81281 4.3149,0 7.8128,3.49791 7.8128,7.81281 z"
       sodipodi:nodetypes="sssss" />
  </g>
  <g
     inkscape:groupmode="layer"
     id="layer2"
     inkscape:label="Layer 2"
     style="display:inline"
     transform="translate(1.000006,1.0019744)" />
</svg>
