<?xml version="1.0" encoding="UTF-8" standalone="no"?>
<svg
   xmlns:dc="http://purl.org/dc/elements/1.1/"
   xmlns:cc="http://creativecommons.org/ns#"
   xmlns:rdf="http://www.w3.org/1999/02/22-rdf-syntax-ns#"
   xmlns:svg="http://www.w3.org/2000/svg"
   xmlns="http://www.w3.org/2000/svg"
   xmlns:sodipodi="http://sodipodi.sourceforge.net/DTD/sodipodi-0.dtd"
   xmlns:inkscape="http://www.inkscape.org/namespaces/inkscape"
   width="2433.8398"
   height="499.7222"
   version="1.1"
   id="svg44"
   sodipodi:docname="GconfigLogo.svg"
   inkscape:version="0.92.3 (2405546, 2018-03-11)">
  <defs
     id="defs6482" />
  <metadata
     id="metadata48">
    <rdf:RDF>
      <cc:Work
         rdf:about="">
        <dc:format>image/svg+xml</dc:format>
        <dc:type
           rdf:resource="http://purl.org/dc/dcmitype/StillImage" />
        <dc:title></dc:title>
      </cc:Work>
    </rdf:RDF>
  </metadata>
  <sodipodi:namedview
     pagecolor="#ffffff"
     bordercolor="#666666"
     borderopacity="1"
     objecttolerance="10"
     gridtolerance="10"
     guidetolerance="10"
     inkscape:pageopacity="0"
     inkscape:pageshadow="2"
     inkscape:window-width="1920"
     inkscape:window-height="1017"
     id="namedview46"
     showgrid="false"
     inkscape:zoom="0.3535534"
     inkscape:cx="1426.2252"
     inkscape:cy="-165.41037"
     inkscape:window-x="-8"
     inkscape:window-y="-8"
     inkscape:window-maximized="1"
     inkscape:current-layer="use42"
     fit-margin-left="10"
     fit-margin-top="10"
     fit-margin-bottom="10"
     fit-margin-right="10" />
  <g
     id="use42"
     transform="translate(270.84888,532.2609)">
    <g
       transform="rotate(-90,-165.086,-13.027127)"
       id="use7131"
       style="fill:#bed730;fill-opacity:0.78431373;stroke:#000000;stroke-opacity:1;stroke-width:2;stroke-miterlimit:4;stroke-dasharray:none">
      <ref
         default="40"
         param="x"
         id="elementWidth" />
      <ref
         default="10"
         param="y"
         id="holeRadius" />
      <path
         inkscape:connector-curvature="0"
         id="path7175"
         style="fill:#bed730;fill-opacity:0.78431373;stroke:#000000;stroke-opacity:1;stroke-width:2;stroke-miterlimit:4;stroke-dasharray:none"
         d="m 4.4909383,-108.79001 a 40.000001,40.000001 0 0 0 0,80.000002 H 204.49093 a 40.000001,40.000001 0 0 0 0,-80.000002 H 4.4909383 m 13.9999997,40.000002 a 14,14 0 0 1 -13.9999997,14 14,14 0 0 1 -14,-14 14,14 0 0 1 14,-14 14,14 0 0 1 13.9999997,14 z m 199.999992,0 a 14,14 0 0 1 -14,14 14,14 0 0 1 -14,-14 14,14 0 0 1 14,-14 14,14 0 0 1 14,14 z" />
    </g>
    <g
       transform="rotate(30,419.41718,-44.92652)"
       id="use7131-0"
       style="fill:#faa71a;fill-opacity:0.78431373;stroke:#000000;stroke-opacity:1;stroke-width:2;stroke-miterlimit:4;stroke-dasharray:none">
      <ref
         default="40"
         param="x"
         id="elementWidth" />
      <ref
         default="10"
         param="y"
         id="holeRadius" />
      <path
         inkscape:connector-curvature="0"
         id="path7175-1"
         style="fill:#faa71a;fill-opacity:0.78431373;stroke:#000000;stroke-opacity:1;stroke-width:2;stroke-miterlimit:4;stroke-dasharray:none"
         d="m -203.77641,115.96476 a 40.000001,40.000001 0 0 0 0,80 H -3.7764187 a 40.000001,40.000001 0 0 0 0,-80 H -203.77641 m 14,40 a 14,14 0 0 1 -14,14 14,14 0 0 1 -14,-14 14,14 0 0 1 14,-14 14,14 0 0 1 14,14 z m 199.999991,0 a 14,14 0 0 1 -13.9999997,14 14,14 0 0 1 -14.0000003,-14 14,14 0 0 1 14.0000003,-14 14,14 0 0 1 13.9999997,14 z" />
    </g>
    <g
       transform="rotate(150,80.336233,-109.42507)"
       id="use7131-2"
       style="fill:#d70b8c;fill-opacity:0.78431373;stroke:#000000;stroke-opacity:1;stroke-width:2;stroke-miterlimit:4;stroke-dasharray:none">
      <ref
         default="40"
         param="x"
         id="elementWidth" />
      <ref
         default="10"
         param="y"
         id="holeRadius" />
      <path
         inkscape:connector-curvature="0"
         id="path7175-9"
         style="fill:#d70b8c;fill-opacity:0.78431373;stroke:#000000;stroke-opacity:1;stroke-width:2;stroke-miterlimit:4;stroke-dasharray:none"
         d="m 4.4909383,-108.79001 a 40.000001,40.000001 0 0 0 0,80.000002 H 204.49093 a 40.000001,40.000001 0 0 0 0,-80.000002 H 4.4909383 m 13.9999997,40.000002 a 14,14 0 0 1 -13.9999997,14 14,14 0 0 1 -14,-14 14,14 0 0 1 14,-14 14,14 0 0 1 13.9999997,14 z m 199.999992,0 a 14,14 0 0 1 -14,14 14,14 0 0 1 -14,-14 14,14 0 0 1 14,-14 14,14 0 0 1 14,14 z" />
    </g>
    <g
       transform="rotate(30,377.29775,-272.65226)"
       id="use7131-7"
       style="fill:#5c2d91;fill-opacity:0.78431373;stroke:#000000;stroke-opacity:1;stroke-width:2;stroke-miterlimit:4;stroke-dasharray:none">
      <ref
         default="40"
         param="x"
         id="elementWidth" />
      <ref
         default="10"
         param="y"
         id="holeRadius" />
      <path
         inkscape:connector-curvature="0"
         id="path7175-8"
         style="fill:#5c2d91;fill-opacity:0.78431373;stroke:#000000;stroke-opacity:1;stroke-width:2;stroke-miterlimit:4;stroke-dasharray:none"
         d="m 4.4909383,-108.79001 a 40.000001,40.000001 0 0 0 0,80.000002 H 204.49093 a 40.000001,40.000001 0 0 0 0,-80.000002 H 4.4909383 m 13.9999997,40.000002 m 199.999992,0 a 14,14 0 0 1 -14,14 14,14 0 0 1 -14,-14 14,14 0 0 1 14,-14 14,14 0 0 1 14,14 z" />
    </g>
    <g
       transform="rotate(-30,-693.05839,194.72089)"
       id="use7131-3"
       style="fill:#33bcad;fill-opacity:0.78431373;stroke:#000000;stroke-opacity:1;stroke-width:2;stroke-miterlimit:4;stroke-dasharray:none">
      <ref
         default="40"
         param="x"
         id="elementWidth" />
      <ref
         default="10"
         param="y"
         id="holeRadius" />
      <path
         inkscape:connector-curvature="0"
         id="path7175-15"
         style="fill:#33bcad;fill-opacity:0.78431373;stroke:#000000;stroke-opacity:1;stroke-width:2;stroke-miterlimit:4;stroke-dasharray:none"
         d="m 4.4909383,-108.79001 a 40.000001,40.000001 0 0 0 0,80.000002 H 204.49093 a 40.000001,40.000001 0 0 0 0,-80.000002 H 4.4909383 m 13.9999997,40.000002 a 14,14 0 0 1 -13.9999997,14 14,14 0 0 1 -14,-14 14,14 0 0 1 14,-14 14,14 0 0 1 13.9999997,14 z m 199.999992,0 a 14,14 0 0 1 -14,14 14,14 0 0 1 -14,-14 14,14 0 0 1 14,-14 14,14 0 0 1 14,14 z" />
    </g>
    <g
       transform="rotate(30,749.81951,-372.37818)"
       id="use7131-6"
       style="fill:#00c0f3;fill-opacity:0.78431373;stroke:#000000;stroke-opacity:1;stroke-width:2;stroke-miterlimit:4;stroke-dasharray:none">
      <ref
         default="40"
         param="x"
         id="elementWidth" />
      <ref
         default="10"
         param="y"
         id="holeRadius" />
      <path
         inkscape:connector-curvature="0"
         id="path7175-2"
         style="fill:#00c0f3;fill-opacity:0.78431373;stroke:#000000;stroke-opacity:1;stroke-width:2;stroke-miterlimit:4;stroke-dasharray:none"
         d="m 4.4909383,-108.79001 a 40.000001,40.000001 0 0 0 0,80.000002 H 204.49093 a 40.000001,40.000001 0 0 0 0,-80.000002 H 4.4909383 m 13.9999997,40.000002 a 14,14 0 0 1 -13.9999997,14 14,14 0 0 1 -14,-14 14,14 0 0 1 14,-14 14,14 0 0 1 13.9999997,14 z" />
    </g>
    <g
       transform="matrix(0.55805828,0,0,0.55805828,246.6268,-229.50566)"
       id="use7131-20"
       style="fill:none;fill-opacity:0.78431373;stroke:#000000;stroke-width:8.95963769;stroke-miterlimit:4;stroke-dasharray:none;stroke-opacity:1">
      <ref
         default="40"
         param="x"
         id="elementWidth" />
      <ref
         default="10"
         param="y"
         id="holeRadius" />
      <path
         inkscape:connector-curvature="0"
         id="path7175-28"
         style="fill:none;fill-opacity:0.78431373;stroke:#000000;stroke-width:8.95963769;stroke-miterlimit:4;stroke-dasharray:none;stroke-opacity:1"
         d="m 4.4909383,-108.79001 a 40.000001,40.000001 0 0 0 0,80.000002 H 204.49093 a 40.000001,40.000001 0 0 0 0,-80.000002 H 4.4909383 m 13.9999997,40.000002 a 14,14 0 0 1 -13.9999997,14 14,14 0 0 1 -14,-14 14,14 0 0 1 14,-14 14,14 0 0 1 13.9999997,14 z m 199.999992,0 a 14,14 0 0 1 -14,14 14,14 0 0 1 -14,-14 14,14 0 0 1 14,-14 14,14 0 0 1 14,14 z" />
    </g>
    <text
       xml:space="preserve"
       style="font-style:normal;font-variant:normal;font-weight:normal;font-stretch:normal;font-size:60.80403137px;line-height:1.25;font-family:sans-serif;-inkscape-font-specification:sans-serif;letter-spacing:0px;word-spacing:0px;fill:#000000;fill-opacity:1;stroke:none;stroke-width:10;stroke-miterlimit:4;stroke-dasharray:none"
       x="429.45807"
       y="-112.27765"
       id="text2554"><tspan
         sodipodi:role="line"
         id="tspan2552"
         x="429.45807"
         y="-112.27765"
         style="font-style:normal;font-variant:normal;font-weight:normal;font-stretch:normal;font-size:466.16421509px;font-family:'Gill Sans Nova';-inkscape-font-specification:'Gill Sans Nova';fill:none;stroke:#000000;stroke-width:10;stroke-miterlimit:4;stroke-dasharray:none;stroke-opacity:1">CONFIG</tspan></text>
  </g>
</svg>
