<svg id="GitKraken_UI" data-name="GitKraken UI" xmlns="http://www.w3.org/2000/svg" viewBox="0 0 307.51 189.48"><defs><style>.cls-1{fill:#282a30;}.cls-2{fill:#1c1f23;}.cls-3{fill:#521e3d;}.cls-4{fill:#272b30;}.cls-5{fill:#33363f;}.cls-6{fill:#313541;}.cls-7{fill:#b6b6b9;}.cls-8{fill:#78797e;}.cls-9{fill:#149ebf;}.cls-10{fill:#163157;}.cls-11{fill:#4f254f;}.cls-12{fill:#406ab2;}.cls-13{fill:#d61672;}.cls-14{fill:#ae3f96;}.cls-15{fill:#253b44;}.cls-16{fill:#1c3146;}.cls-17{fill:#412638;}.cls-18{fill:#402a42;}.cls-19{fill:#1b5f71;}.cls-20{fill:#1f4652;}.cls-21,.cls-22,.cls-23,.cls-35{fill:none;stroke-miterlimit:10;}.cls-21{stroke:#406ab2;}.cls-21,.cls-22,.cls-23{stroke-width:0.71px;}.cls-22{stroke:#d61672;}.cls-23{stroke:#ae3f96;}.cls-24{fill:#2e7ab7;}.cls-25{fill:#e65525;}.cls-26{fill:#9a9d9d;}.cls-27{fill:#3e434e;}.cls-28{fill:#3e4454;}.cls-29{fill:#96a8d5;}.cls-30{fill:#dc9a43;}.cls-31{fill:#5d7fbf;}.cls-32{fill:#5bb65b;}.cls-33{fill:#394766;}.cls-34{fill:#fff;}.cls-35{stroke:#78797e;stroke-linecap:round;stroke-width:0.5px;}</style></defs><title>v6</title><rect class="cls-1" y="5.14" width="307.51" height="10.2"/><rect class="cls-2" y="29.16" width="307.51" height="154.26"/><path class="cls-3" d="M142.45,165.4V166H91.65v2.84a.4.4,0,0,1-.4.4H64.64a.4.4,0,0,1-.4-.4v-6.24a.4.4,0,0,1,.4-.4H91.25a.4.4,0,0,1,.4.4v2.85Z"/><rect class="cls-4" y="28.01" width="58.34" height="154.41"/><path class="cls-3" d="M142.45,122.18v.55H81.66v2.84a.4.4,0,0,1-.4.4H64.64a.4.4,0,0,1-.4-.4v-6.24a.4.4,0,0,1,.4-.4H81.26a.4.4,0,0,1,.4.4v2.85Z"/><rect class="cls-5" x="236.53" y="29.16" width="70.98" height="153.26"/><rect class="cls-5" y="15.35" width="307.51" height="13.82"/><path class="cls-6" d="M0,183.16H307.51a0,0,0,0,1,0,0v3.32a3,3,0,0,1-3,3H2.8a2.8,2.8,0,0,1-2.8-2.8v-3.52A0,0,0,0,1,0,183.16Z"/><rect class="cls-4" x="238.54" y="74.32" width="66.79" height="103.08"/><rect class="cls-7" x="46.04" y="21.81" width="18.65" height="2.11" rx="1.06"/><rect class="cls-7" x="4.23" y="21.81" width="27.71" height="2.11" rx="1.06"/><rect class="cls-7" x="108.41" y="21.2" width="3.4" height="3.29" rx="0.62"/><rect class="cls-7" x="120.98" y="21.2" width="3.4" height="3.29" rx="0.62"/><rect class="cls-7" x="132.9" y="21.2" width="3.4" height="3.29" rx="0.62"/><rect class="cls-7" x="145.47" y="21.2" width="3.4" height="3.29" rx="0.62"/><rect class="cls-7" x="157.97" y="21.2" width="3.4" height="3.29" rx="0.62"/><rect class="cls-7" x="170.55" y="21.2" width="3.4" height="3.29" rx="0.62"/><rect class="cls-7" x="183.12" y="21.2" width="3.4" height="3.29" rx="0.62"/><rect class="cls-7" x="195.7" y="21.2" width="3.4" height="3.29" rx="0.62"/><rect class="cls-7" x="208.28" y="21.2" width="3.4" height="3.29" rx="0.62"/><rect class="cls-7" x="258.49" y="20.82" width="4.9" height="0.78"/><rect class="cls-7" x="258.49" y="23.96" width="4.9" height="0.78"/><rect class="cls-7" x="258.49" y="22.39" width="4.9" height="0.78"/><rect class="cls-7" x="247.43" y="20.57" width="4.75" height="4.59" rx="0.86"/><rect class="cls-7" x="4.27" y="8.65" width="3.71" height="3.71" rx="0.55"/><rect class="cls-8" x="159.79" y="35.46" width="59.17" height="1.82" rx="0.91"/><rect class="cls-8" x="159.79" y="46.27" width="74.85" height="1.82" rx="0.91"/><rect class="cls-8" x="159.79" y="56.93" width="68.2" height="1.82" rx="0.91"/><rect class="cls-8" x="159.79" y="67.72" width="66.41" height="1.82" rx="0.91"/><rect class="cls-8" x="159.79" y="78.57" width="68.2" height="1.82" rx="0.91"/><rect class="cls-8" x="159.79" y="89.32" width="51.98" height="1.82" rx="0.91"/><rect class="cls-8" x="159.79" y="100.06" width="68.2" height="1.82" rx="0.91"/><rect class="cls-8" x="159.79" y="110.91" width="68.2" height="1.82" rx="0.91"/><rect class="cls-8" x="159.79" y="121.65" width="66.34" height="1.82" rx="0.91"/><rect class="cls-8" x="159.79" y="132.43" width="68.2" height="1.82" rx="0.91"/><rect class="cls-8" x="159.79" y="143.22" width="62.73" height="1.82" rx="0.91"/><rect class="cls-8" x="159.79" y="154.09" width="68.2" height="1.82" rx="0.91"/><rect class="cls-8" x="159.79" y="164.76" width="74.54" height="1.82" rx="0.91"/><rect class="cls-8" x="159.79" y="175.44" width="64.4" height="1.82" rx="0.91"/><rect class="cls-8" x="247.4" y="52.4" width="24.78" height="1.58" rx="0.79"/><path class="cls-9" d="M110.26,36.06v.55H94.88v3a.4.4,0,0,1-.4.4H64.58a.4.4,0,0,1-.4-.4V33.32a.4.4,0,0,1,.4-.4h29.9a.4.4,0,0,1,.4.4v2.74Z"/><path class="cls-10" d="M121.29,57.61v.55H84.72V61a.4.4,0,0,1-.4.4H64.58a.4.4,0,0,1-.4-.4V54.76a.4.4,0,0,1,.4-.4H84.32a.4.4,0,0,1,.4.4v2.85Z"/><path class="cls-11" d="M131.77,79.11v.55h-40V82.5a.4.4,0,0,1-.4.4H64.58a.4.4,0,0,1-.4-.4V76.26a.4.4,0,0,1,.4-.4H91.37a.4.4,0,0,1,.4.4v2.85Z"/><rect class="cls-9" x="156.15" y="140.8" width="1.1" height="7.04"/><rect class="cls-12" x="156.15" y="151.48" width="1.1" height="7.04"/><rect class="cls-12" x="156.15" y="129.82" width="1.1" height="7.04"/><rect class="cls-13" x="156.15" y="119.04" width="1.1" height="7.04"/><rect class="cls-12" x="156.15" y="108.28" width="1.1" height="7.04"/><rect class="cls-9" x="156.15" y="97.49" width="1.1" height="7.04"/><rect class="cls-9" x="156.15" y="86.6" width="1.1" height="7.04"/><rect class="cls-14" x="156.15" y="75.86" width="1.1" height="7.04"/><rect class="cls-9" x="156.15" y="65.11" width="1.1" height="7.04"/><rect class="cls-12" x="156.15" y="54.36" width="1.1" height="7.04"/><rect class="cls-9" x="156.15" y="43.66" width="1.1" height="7.04"/><rect class="cls-9" x="156.15" y="32.86" width="1.1" height="7.04"/><rect class="cls-15" x="113.55" y="140.8" width="42.63" height="7.04"/><rect class="cls-9" x="156.15" y="172.83" width="1.1" height="7.04"/><rect class="cls-15" x="113.55" y="172.83" width="42.63" height="7.04"/><rect class="cls-16" x="124.27" y="151.48" width="31.91" height="7.04"/><rect class="cls-16" x="113.03" y="172.83" width="43.15" height="7.04"/><rect class="cls-16" x="124.27" y="129.82" width="31.91" height="7.04"/><rect class="cls-17" x="145.84" y="119.04" width="10.34" height="7.04"/><rect class="cls-16" x="124.27" y="108.28" width="31.91" height="7.04"/><rect class="cls-15" x="113.55" y="97.49" width="42.63" height="7.04"/><rect class="cls-15" x="113.55" y="86.6" width="42.63" height="7.04"/><rect class="cls-18" x="134.92" y="75.86" width="21.26" height="7.04"/><rect class="cls-15" x="113.55" y="65.11" width="42.63" height="7.04"/><rect class="cls-16" x="124.4" y="54.36" width="31.78" height="7.04"/><rect class="cls-15" x="113.55" y="43.66" width="42.63" height="7.04"/><rect class="cls-19" x="113.55" y="32.86" width="42.63" height="7.04"/><path class="cls-20" d="M110.26,143.94v.55H84.72v2.95a.4.4,0,0,1-.4.4H64.58a.4.4,0,0,1-.4-.4V141.2a.4.4,0,0,1,.4-.4H84.32a.4.4,0,0,1,.4.4v2.74Z"/><rect class="cls-9" x="113.03" y="39.66" width="0.7" height="143.5"/><path class="cls-2" d="M113.38,50.47a3.29,3.29,0,1,1,3.29-3.29A3.3,3.3,0,0,1,113.38,50.47Z"/><path class="cls-9" d="M113.38,44.25a2.93,2.93,0,1,1-2.93,2.93,2.93,2.93,0,0,1,2.93-2.93m0-.71A3.64,3.64,0,1,0,117,47.18a3.64,3.64,0,0,0-3.64-3.64Z"/><circle class="cls-2" cx="113.38" cy="36.38" r="3.29"/><path class="cls-9" d="M113.38,33.44a2.94,2.94,0,1,1-2.93,2.94,2.94,2.94,0,0,1,2.93-2.94m0-.71A3.65,3.65,0,1,0,117,36.38a3.64,3.64,0,0,0-3.64-3.65Z"/><circle class="cls-2" cx="124.16" cy="57.99" r="3.29"/><path class="cls-12" d="M124.17,55.06A2.93,2.93,0,1,1,121.23,58a2.93,2.93,0,0,1,2.94-2.93m0-.71A3.64,3.64,0,1,0,127.81,58a3.64,3.64,0,0,0-3.64-3.64Z"/><path class="cls-2" d="M134.92,82.67a3.29,3.29,0,1,1,3.29-3.29A3.3,3.3,0,0,1,134.92,82.67Z"/><path class="cls-14" d="M134.92,76.45A2.93,2.93,0,1,1,132,79.38a2.93,2.93,0,0,1,2.93-2.93m0-.71a3.64,3.64,0,1,0,3.64,3.64,3.64,3.64,0,0,0-3.64-3.64Z"/><path class="cls-21" d="M116.55,68.63h3.54a4.31,4.31,0,0,0,4.31-4.31v-3.4"/><path class="cls-22" d="M125.22,111.8h16.16a4.31,4.31,0,0,1,4.31,4.31v3.5"/><path class="cls-22" d="M116.46,144.13h24.92a4.31,4.31,0,0,0,4.31-4.31V125.7"/><path class="cls-22" d="M116.46,144.13h24.92a4.31,4.31,0,0,1,4.31,4.31v34.72"/><path class="cls-23" d="M116.81,101h13.85A4.31,4.31,0,0,0,135,96.7v-14"/><path class="cls-2" d="M113.38,71.92a3.29,3.29,0,1,1,3.29-3.29A3.3,3.3,0,0,1,113.38,71.92Z"/><path class="cls-9" d="M113.38,65.7a2.93,2.93,0,1,1-2.93,2.93,2.93,2.93,0,0,1,2.93-2.93m0-.71A3.64,3.64,0,1,0,117,68.63,3.64,3.64,0,0,0,113.38,65Z"/><circle class="cls-2" cx="113.4" cy="144.13" r="3.29"/><path class="cls-9" d="M113.4,141.19a2.94,2.94,0,1,1-2.93,2.94,2.94,2.94,0,0,1,2.93-2.94m0-.71a3.65,3.65,0,1,0,3.64,3.65,3.65,3.65,0,0,0-3.64-3.65Z"/><circle class="cls-2" cx="113.4" cy="176.35" r="3.29"/><path class="cls-9" d="M113.4,173.42a2.93,2.93,0,1,1-2.93,2.93,2.93,2.93,0,0,1,2.93-2.93m0-.71a3.64,3.64,0,1,0,3.64,3.64,3.64,3.64,0,0,0-3.64-3.64Z"/><path class="cls-21" d="M114.22,90.12h5.66a4.31,4.31,0,0,1,4.31,4.31v88.73"/><path class="cls-2" d="M124.12,136.63a3.29,3.29,0,1,1,3.29-3.29A3.29,3.29,0,0,1,124.12,136.63Z"/><path class="cls-12" d="M124.12,130.41a2.93,2.93,0,1,1-2.93,2.93,2.93,2.93,0,0,1,2.93-2.93m0-.71a3.64,3.64,0,1,0,3.64,3.64,3.64,3.64,0,0,0-3.64-3.64Z"/><path class="cls-2" d="M124.12,158.28a3.29,3.29,0,1,1,3.29-3.28A3.28,3.28,0,0,1,124.12,158.28Z"/><path class="cls-12" d="M124.12,152.06a2.94,2.94,0,1,1-2.93,2.94,2.94,2.94,0,0,1,2.93-2.94m0-.71a3.65,3.65,0,1,0,3.64,3.65,3.64,3.64,0,0,0-3.64-3.65Z"/><circle class="cls-9" cx="113.4" cy="90.23" r="1.82"/><circle class="cls-2" cx="113.4" cy="100.95" r="3.29"/><path class="cls-9" d="M113.4,98a2.93,2.93,0,1,1-2.93,2.93A2.93,2.93,0,0,1,113.4,98m0-.71A3.64,3.64,0,1,0,117,101a3.64,3.64,0,0,0-3.64-3.64Z"/><rect class="cls-7" x="269.57" y="18.64" width="8.4" height="8.4" rx="4.2"/><rect class="cls-2" x="273.36" y="184.05" width="4.53" height="4.53" rx="2.27"/><rect class="cls-8" x="238.54" y="51.73" width="5.82" height="5.82" rx="0.41"/><rect class="cls-24" x="258.73" y="184.9" width="11.77" height="2.83" rx="0.49"/><polygon class="cls-25" points="289.39 188.19 279.6 188.17 280.56 184.46 290.35 184.47 289.39 188.19"/><rect class="cls-26" x="245.1" y="185.38" width="10.79" height="1.89" rx="0.94"/><rect class="cls-26" x="293.11" y="185.38" width="10.79" height="1.89" rx="0.94"/><rect class="cls-5" y="30.03" width="58.34" height="12.16"/><rect class="cls-4" x="1.77" y="34.94" width="54.43" height="5.08"/><circle class="cls-2" cx="145.69" cy="122.56" r="3.29"/><path class="cls-13" d="M145.69,119.62a2.94,2.94,0,1,1-2.93,2.94,2.94,2.94,0,0,1,2.93-2.94m0-.71a3.65,3.65,0,1,0,3.64,3.65,3.65,3.65,0,0,0-3.64-3.65Z"/><rect class="cls-13" x="156.15" y="162.15" width="1.1" height="7.04"/><rect class="cls-17" x="145.84" y="162.15" width="10.34" height="7.04"/><circle class="cls-2" cx="145.69" cy="165.67" r="3.29"/><path class="cls-13" d="M145.69,162.74a2.93,2.93,0,1,1-2.93,2.93,2.94,2.94,0,0,1,2.93-2.93m0-.71a3.64,3.64,0,1,0,3.64,3.64,3.64,3.64,0,0,0-3.64-3.64Z"/><circle class="cls-12" cx="124.12" cy="111.82" r="1.82"/><rect class="cls-27" x="236.49" y="29.16" width="70.89" height="5.78"/><path class="cls-28" d="M305.65.05H3.22A3.22,3.22,0,0,0,0,3.27V5.14H307.51V1.91A1.86,1.86,0,0,0,305.65.05Z"/><circle class="cls-8" cx="3.87" cy="2.89" r="1.02"/><circle class="cls-8" cx="8.08" cy="2.89" r="1.02"/><circle class="cls-8" cx="12.28" cy="2.89" r="1.02"/><rect class="cls-7" x="2.16" y="31.52" width="2.07" height="2.01" rx="0.38"/><rect class="cls-6" x="52.72" y="36.6" width="2.07" height="2.01" rx="0.38"/><rect class="cls-7" x="7.43" y="31.83" width="13.9" height="1.38" rx="0.69"/><rect class="cls-8" x="264.98" y="31.36" width="13.9" height="1.38" rx="0.69"/><rect class="cls-8" x="294.44" y="52.5" width="10.57" height="1.38" rx="0.69"/><rect class="cls-8" x="247.63" y="55.61" width="13.9" height="1.38" rx="0.69"/><rect class="cls-8" x="280.3" y="20.57" width="24.78" height="1.58" rx="0.79"/><rect class="cls-8" x="280.53" y="23.78" width="13.9" height="1.38" rx="0.69"/><rect class="cls-8" x="242.13" y="65.29" width="8.57" height="1.38" rx="0.69"/><rect class="cls-8" x="242.13" y="70.64" width="13.9" height="1.38" rx="0.69"/><rect class="cls-6" x="3.87" y="36.79" width="31.53" height="1.38" rx="0.69"/><rect class="cls-7" x="51.31" y="31.83" width="4.88" height="1.38" rx="0.69"/><rect class="cls-29" x="23.59" y="31.83" width="7.98" height="1.38" rx="0.69"/><rect class="cls-5" y="42.94" width="58.34" height="6.35"/><rect class="cls-7" x="2.16" y="45.11" width="2.07" height="2.01" rx="0.38"/><rect class="cls-7" x="5.6" y="45.42" width="13.9" height="1.38" rx="0.69"/><rect class="cls-29" x="49.65" y="45.42" width="6.55" height="1.38" rx="0.69"/><rect class="cls-5" y="74.76" width="58.34" height="6.35"/><rect class="cls-7" x="2.16" y="76.93" width="2.07" height="2.01" rx="0.38"/><rect class="cls-7" x="5.6" y="77.24" width="11.38" height="1.38" rx="0.62"/><rect class="cls-29" x="54.03" y="77.24" width="2.41" height="1.38" rx="0.69"/><rect class="cls-5" y="103.12" width="58.34" height="6.35"/><rect class="cls-7" x="2.16" y="105.29" width="2.07" height="2.01" rx="0.38"/><rect class="cls-7" x="5.6" y="105.6" width="18.95" height="1.38" rx="0.69"/><rect class="cls-29" x="49.89" y="105.6" width="6.55" height="1.38" rx="0.69"/><rect class="cls-5" y="149" width="58.34" height="6.35"/><rect class="cls-7" x="2.16" y="151.17" width="2.07" height="2.01" rx="0.38"/><rect class="cls-7" x="5.6" y="151.48" width="13.9" height="1.38" rx="0.69"/><rect class="cls-29" x="49.51" y="151.48" width="6.92" height="1.38" rx="0.69"/><rect class="cls-5" y="155.46" width="58.34" height="6.35"/><rect class="cls-7" x="2.16" y="157.63" width="2.07" height="2.01" rx="0.38"/><rect class="cls-7" x="5.6" y="157.94" width="13.9" height="1.38" rx="0.69"/><rect class="cls-29" x="53.17" y="157.94" width="3.27" height="1.38" rx="0.69"/><rect class="cls-27" x="238.54" y="37.21" width="66.79" height="11.57"/><rect class="cls-8" x="302.94" y="31.05" width="2.07" height="2.01" rx="0.38"/><rect class="cls-30" x="238.54" y="64.98" width="2.07" height="2.01" rx="0.38"/><rect class="cls-8" x="295.24" y="70.74" width="9.15" height="1.38" rx="0.69"/><rect class="cls-8" x="241.71" y="77.93" width="12.64" height="1.38" rx="0.69"/><rect class="cls-8" x="251.47" y="84.82" width="4.53" height="1.38" rx="0.69"/><rect class="cls-8" x="257.32" y="92.62" width="19.27" height="1.38" rx="0.69"/><rect class="cls-8" x="262.88" y="100.28" width="21.78" height="1.38" rx="0.69"/><rect class="cls-8" x="268.33" y="107.94" width="19.92" height="1.38" rx="0.69"/><rect class="cls-8" x="269.44" y="115.61" width="10.97" height="1.38" rx="0.69"/><rect class="cls-8" x="269.27" y="123.44" width="12.76" height="1.38" rx="0.69"/><rect class="cls-8" x="257.32" y="131.37" width="12.76" height="1.38" rx="0.69"/><rect class="cls-8" x="262.89" y="138.76" width="12.76" height="1.38" rx="0.69"/><rect class="cls-8" x="291.66" y="70.42" width="2.07" height="2.01" rx="0.38"/><rect class="cls-31" x="245.53" y="83.82" width="2.71" height="2.71" rx="0.5"/><rect class="cls-31" x="250.71" y="91.95" width="2.71" height="2.71" rx="0.5"/><rect class="cls-31" x="256.37" y="99.61" width="2.71" height="2.71" rx="0.5"/><rect class="cls-31" x="262.08" y="107.27" width="2.71" height="2.71" rx="0.5"/><rect class="cls-31" x="251.02" y="130.7" width="2.71" height="2.71" rx="0.5"/><rect class="cls-30" x="256.7" y="138.09" width="2.71" height="2.71" rx="0.5"/><rect class="cls-30" x="264.42" y="114.94" width="2.71" height="2.71" rx="0.5"/><rect class="cls-32" x="264.42" y="122.77" width="2.71" height="2.71" rx="0.5"/><rect class="cls-8" x="242.27" y="42.29" width="16.38" height="1.41" rx="0.7"/><rect class="cls-27" x="261.95" y="69.68" width="9.88" height="3.5"/><rect class="cls-33" x="271.93" y="69.68" width="9.88" height="3.5"/><rect class="cls-8" x="6.13" y="52.33" width="2.07" height="2.01" rx="0.38"/><rect class="cls-8" x="10.27" y="52.84" width="6.3" height="1" rx="0.5"/><rect class="cls-8" x="4.23" y="18.72" width="11.13" height="1" rx="0.5"/><rect class="cls-8" x="46.04" y="18.72" width="6.3" height="1" rx="0.5"/><rect class="cls-8" x="10.27" y="56.72" width="2.07" height="2.01" rx="0.38"/><rect class="cls-8" x="14.41" y="57.22" width="19.65" height="1" rx="0.5"/><rect class="cls-8" x="10.27" y="117.18" width="2.07" height="2.01" rx="0.38"/><rect class="cls-8" x="10.27" y="61.1" width="2.07" height="2.01" rx="0.38"/><rect class="cls-8" x="14.41" y="61.61" width="10.57" height="1" rx="0.5"/><rect class="cls-8" x="2.16" y="84.63" width="2.07" height="2.01" rx="0.38"/><rect class="cls-8" x="6.3" y="85.13" width="10.57" height="1" rx="0.5"/><rect class="cls-8" x="2.16" y="89.01" width="2.07" height="2.01" rx="0.38"/><rect class="cls-7" x="6.3" y="89.52" width="10.57" height="1" rx="0.5"/><rect class="cls-8" x="6.3" y="89.52" width="19.65" height="1" rx="0.5"/><rect class="cls-8" x="2.16" y="112.68" width="2.07" height="2.01" rx="0.38"/><rect class="cls-8" x="6.3" y="113.19" width="19.65" height="1" rx="0.5"/><rect class="cls-8" x="2.16" y="93.4" width="2.07" height="2.01" rx="0.38"/><rect class="cls-8" x="6.3" y="93.9" width="10.57" height="1" rx="0.5"/><rect class="cls-8" x="2.16" y="97.78" width="2.07" height="2.01" rx="0.38"/><rect class="cls-8" x="6.3" y="98.29" width="10.57" height="1" rx="0.5"/><rect class="cls-8" x="10.27" y="65.49" width="2.07" height="2.01" rx="0.38"/><rect class="cls-8" x="14.41" y="65.99" width="15.99" height="1" rx="0.5"/><rect class="cls-8" x="10.27" y="69.87" width="2.07" height="2.01" rx="0.38"/><rect class="cls-8" x="14.41" y="70.38" width="17.91" height="1" rx="0.5"/><rect class="cls-8" x="5.6" y="165.35" width="2.07" height="2.01" rx="0.38"/><rect class="cls-8" x="9.74" y="174.63" width="19.65" height="1" rx="0.5"/><rect class="cls-8" x="5.6" y="169.74" width="2.07" height="2.01" rx="0.38"/><rect class="cls-8" x="9.74" y="170.24" width="10.57" height="1" rx="0.5"/><rect class="cls-8" x="5.6" y="174.12" width="2.07" height="2.01" rx="0.38"/><rect class="cls-8" x="9.74" y="165.86" width="15.99" height="1" rx="0.5"/><rect class="cls-8" x="5.6" y="178.51" width="2.07" height="2.01" rx="0.38"/><rect class="cls-8" x="9.74" y="179.01" width="17.91" height="1" rx="0.5"/><rect class="cls-8" x="10.27" y="121.57" width="2.07" height="2.01" rx="0.38"/><rect class="cls-8" x="10.27" y="125.95" width="2.07" height="2.01" rx="0.38"/><rect class="cls-8" x="10.27" y="130.34" width="2.07" height="2.01" rx="0.38"/><rect class="cls-8" x="10.27" y="134.84" width="2.07" height="2.01" rx="0.38"/><rect class="cls-8" x="10.27" y="139.22" width="2.07" height="2.01" rx="0.38"/><rect class="cls-8" x="10.27" y="143.67" width="2.07" height="2.01" rx="0.38"/><rect class="cls-8" x="14.41" y="117.69" width="38.78" height="1" rx="0.5"/><rect class="cls-8" x="14.41" y="122.07" width="35.73" height="1" rx="0.5"/><rect class="cls-8" x="14.41" y="126.46" width="37.88" height="1" rx="0.5"/><rect class="cls-8" x="14.41" y="139.73" width="35.04" height="1" rx="0.5"/><rect class="cls-8" x="14.41" y="144.17" width="38.41" height="1" rx="0.5"/><rect class="cls-8" x="14.41" y="130.96" width="34.17" height="1" rx="0.5"/><rect class="cls-8" x="14.41" y="135.34" width="41.21" height="1" rx="0.5"/><rect class="cls-34" x="90.84" y="35.27" width="2.2" height="2.13" rx="0.4"/><rect class="cls-34" x="65.64" y="35.89" width="23.36" height="0.89" rx="0.45"/><rect class="cls-8" x="80.63" y="56.8" width="2.2" height="2.13" rx="0.4"/><rect class="cls-8" x="65.62" y="57.41" width="13.18" height="0.89" rx="0.45"/><rect class="cls-8" x="87.7" y="78.3" width="2.2" height="2.13" rx="0.4"/><rect class="cls-8" x="65.62" y="78.88" width="20.24" height="0.95" rx="0.48"/><rect class="cls-8" x="65.64" y="122.01" width="10.14" height="0.89" rx="0.45"/><rect class="cls-8" x="87.61" y="164.61" width="2.2" height="2.13" rx="0.4"/><rect class="cls-8" x="65.64" y="165.23" width="20.14" height="0.89" rx="0.45"/><rect class="cls-8" x="80.68" y="143.15" width="2.2" height="2.13" rx="0.4"/><rect class="cls-8" x="65.64" y="143.77" width="13.2" height="0.89" rx="0.45"/><rect class="cls-8" x="77.62" y="121.39" width="2.2" height="2.13" rx="0.4"/><rect class="cls-28" x="203.61" y="15.43" width="1.02" height="13.73"/><rect class="cls-28" x="125.6" y="5.79" width="0.58" height="8.91"/><rect class="cls-5" x="12.9" y="5.69" width="62.74" height="9.66"/><rect class="cls-7" x="18.61" y="8.87" width="3.4" height="3.29" rx="0.62"/><rect class="cls-7" x="26.29" y="9.45" width="30.67" height="2.11" rx="1.06"/><rect class="cls-8" x="81.76" y="8.87" width="3.4" height="3.29" rx="0.62"/><rect class="cls-8" x="89.44" y="9.45" width="30.67" height="2.11" rx="1.06"/><polyline class="cls-35" points="40.5 20.68 42.76 22.95 40.66 25.05"/><path id="Triangle" class="cls-7" d="M36.14,24l1.4-1.44a.15.15,0,0,0,0-.22.16.16,0,0,0-.11-.05H34.55a.16.16,0,0,0-.16.16.16.16,0,0,0,0,.11L35.84,24a.21.21,0,0,0,.3,0Z"/><path class="cls-8" d="M71.93,9.29l-.17-.18a.15.15,0,0,0-.2,0l-1.12,1.05L69.31,9.1a.15.15,0,0,0-.2,0l-.17.18a.14.14,0,0,0,0,.2l1.1,1-1.1,1a.14.14,0,0,0,0,.2l.17.18a.14.14,0,0,0,.2,0l1.13-1.05,1.12,1.05a.14.14,0,0,0,.2,0l.17-.18a.14.14,0,0,0,0-.2l-1.1-1,1.1-1A.14.14,0,0,0,71.93,9.29Z"/><polygon class="cls-8" points="134.73 10.18 133.24 10.18 133.24 8.68 132.56 8.68 132.56 10.18 131.06 10.18 131.06 10.86 132.56 10.86 132.56 12.35 133.24 12.35 133.24 10.86 134.73 10.86 134.73 10.18"/></svg>